<svg xmlns="http://www.w3.org/2000/svg" width="480.994" height="408.850" viewBox="0 0 480.994 408.850" fill="none">
  <path d="M 268.131 207.688 L 267.644 207.803 L 267.649 207.822 L 267.655 207.841 L 268.131 207.688 Z M 266.525 173.941 L 267.023 173.986 L 267.023 173.986 L 266.525 173.941 Z M 280.042 127.835 L 280.485 128.068 L 280.564 127.918 L 280.535 127.75 L 280.042 127.835 Z M 280.04 127.826 L 280.533 127.74 L 280.476 127.41 L 280.148 127.337 L 280.04 127.826 Z M 280.05 127.823 L 280.16 128.311 L 280.623 128.206 L 280.542 127.738 L 280.05 127.823 Z M 280.048 127.813 L 279.936 127.326 L 279.475 127.432 L 279.555 127.899 L 280.048 127.813 Z M 280.057 127.811 L 280.115 127.315 L 280.03 127.305 L 279.946 127.324 L 280.057 127.811 Z M 279.439 127.824 L 278.947 127.911 L 279.038 128.428 L 279.55 128.311 L 279.439 127.824 Z M 271.677 208.233 L 271.746 208.729 L 271.769 208.725 L 271.792 208.72 L 271.677 208.233 Z M 252.442 215.9 L 252.169 215.481 L 252.161 215.486 L 252.154 215.491 L 252.442 215.9 Z M 230.24 289.627 L 229.777 289.816 L 229.777 289.816 L 230.24 289.627 Z M 245.781 311.791 L 246.064 311.379 L 246.064 311.379 L 245.781 311.791 Z M 326.174 289.351 L 325.692 289.218 L 325.692 289.218 L 326.174 289.351 Z M 330.45 251.989 L 330.946 251.929 L 330.946 251.924 L 330.45 251.989 Z M 309.392 216.149 L 309.1 216.555 L 309.101 216.556 L 309.392 216.149 Z M 244.182 198.968 L 244.565 198.646 L 244.565 198.646 L 244.182 198.968 Z M 215.79 185.324 L 215.763 185.823 L 215.763 185.824 L 215.79 185.324 Z M 192.848 188.357 L 192.711 187.877 L 192.711 187.877 L 192.848 188.357 Z M 152.642 250.756 L 152.145 250.818 L 152.146 250.819 L 152.642 250.756 Z M 156.08 265.132 L 156.536 264.927 L 156.536 264.927 L 156.08 265.132 Z M 84.346 373.057 L 84.809 372.867 L 84.809 372.867 L 84.346 373.057 Z M 202.779 331.269 L 202.286 331.351 L 202.286 331.351 L 202.779 331.269 Z M 186.592 292.592 L 186.21 292.914 L 186.21 292.914 L 186.592 292.592 Z M 165.891 278.478 L 165.739 278.954 L 165.739 278.954 L 165.891 278.478 Z M 149.297 276.24 L 149.285 275.74 L 149.285 275.74 L 149.297 276.24 Z M 133.919 273.627 L 134.322 273.924 L 134.386 273.837 L 134.409 273.73 L 133.919 273.627 Z M 132.316 275.674 L 132.427 276.161 L 132.595 276.123 L 132.704 275.989 L 132.316 275.674 Z M 105.674 287.546 L 105.98 287.942 L 106.053 287.886 L 106.101 287.807 L 105.674 287.546 Z M 88.901 307.58 L 89.009 308.068 L 89.226 308.02 L 89.336 307.827 L 88.901 307.58 Z M 70.877 306.323 L 71.066 305.86 L 71.066 305.86 L 70.877 306.323 Z M 47.914 286.755 L 48.341 286.495 L 48.341 286.495 L 47.914 286.755 Z M 39.274 251.236 L 39.773 251.277 L 39.773 251.277 L 39.274 251.236 Z M 50.579 228.103 L 50.92 228.468 L 50.943 228.446 L 50.964 228.422 L 50.579 228.103 Z M 119.393 219.383 L 119.725 219.009 L 119.725 219.009 L 119.393 219.383 Z M 23.933 378.602 L 23.61 378.984 L 23.61 378.984 L 23.933 378.602 Z M 12.501 364.496 L 12.059 364.73 L 12.059 364.73 L 12.501 364.496 Z M 6.427 345.456 L 6.923 345.39 L 6.923 345.389 L 6.427 345.456 Z M 18.829 300.22 L 19.205 300.549 L 19.206 300.549 L 18.829 300.22 Z M 14.914 390.323 L 14.698 390.773 L 14.698 390.774 L 14.914 390.323 Z M 59.858 254.026 L 59.558 253.627 L 59.544 253.637 L 59.53 253.649 L 59.858 254.026 Z M 68.303 254.817 L 67.947 255.169 L 67.95 255.172 L 68.303 254.817 Z M 51.839 257.001 L 51.789 257.498 L 51.791 257.498 L 51.839 257.001 Z M 274.263 281.409 L 274.144 280.924 L 274.144 280.924 L 274.263 281.409 Z M 269.564 290.355 L 269.513 289.858 L 269.511 289.858 L 269.564 290.355 Z M 260.136 295.997 L 259.86 296.413 L 259.86 296.414 L 260.136 295.997 Z M 262.3 277.96 L 262.39 278.452 L 262.391 278.452 L 262.3 277.96 Z M 132.086 364.089 L 132.117 363.59 L 132.116 363.59 L 132.086 364.089 Z M 147.834 370.31 L 147.485 369.952 L 147.484 369.953 L 147.834 370.31 Z M 149.136 384.854 L 148.984 385.33 L 148.984 385.33 L 149.136 384.854 Z M 121.621 357.17 L 121.56 357.666 L 121.561 357.666 L 121.621 357.17 Z M 348.61 213.616 L 348.646 213.117 L 348.646 213.117 L 348.61 213.616 Z M 354.172 225.091 L 354.02 225.567 L 354.021 225.567 L 354.172 225.091 Z M 361.131 234.497 L 361.619 234.606 L 361.619 234.606 L 361.131 234.497 Z M 341.675 233.978 L 342.121 233.753 L 342.121 233.752 L 341.675 233.978 Z M 347.943 232.098 L 348.441 232.147 L 348.441 232.146 L 347.943 232.098 Z M 339.111 242.457 L 339.162 241.96 L 339.161 241.96 L 339.111 242.457 Z M 331.788 232.178 L 332.264 232.333 L 332.264 232.333 L 331.788 232.178 Z M 339.153 221.768 L 339.649 221.829 L 339.649 221.829 L 339.153 221.768 Z M 167.803 229.71 L 168.146 230.074 L 168.146 230.074 L 167.803 229.71 Z M 176.701 237.716 L 176.698 238.216 L 176.701 238.216 L 176.701 237.716 Z M 180.822 245.627 L 180.532 246.034 L 180.535 246.036 L 180.822 245.627 Z M 181.67 264.622 L 181.295 264.291 L 181.294 264.291 L 181.67 264.622 Z M 373.847 106.689 L 374.339 106.604 L 373.847 106.689 Z M 408.058 156.16 L 407.886 156.63 L 408.245 156.761 L 408.466 156.449 L 408.058 156.16 Z M 422.226 72.191 L 421.731 72.264 L 421.731 72.264 L 422.226 72.191 Z M 405.055 42.498 L 405.299 42.061 L 405.297 42.06 L 405.055 42.498 Z M 395.478 43.524 L 395.757 43.94 L 395.757 43.94 L 395.478 43.524 Z M 403.075 51.396 L 402.88 50.935 L 402.879 50.936 L 403.075 51.396 Z M 407.15 41.213 L 406.66 41.31 L 406.66 41.313 L 407.15 41.213 Z M 377.192 12.618 L 377.409 12.168 L 377.409 12.168 L 377.192 12.618 Z M 300.401 1.002 L 300.344 0.505 L 299.522 0.601 L 299.989 1.284 L 300.401 1.002 Z M 373.047 50.682 L 373.097 50.185 L 373.096 50.185 L 373.047 50.682 Z M 366.965 67.188 L 367.111 67.667 L 367.112 67.667 L 366.965 67.188 Z M 293.233 84.064 L 292.849 83.745 L 292.298 84.408 L 293.147 84.557 L 293.233 84.064 Z M 355.176 74.902 L 355.449 75.32 L 354.919 74.473 L 355.176 74.902 Z M 303.579 108.545 L 303.881 108.943 L 303.881 108.943 L 303.579 108.545 Z M 278.24 128.556 L 277.923 128.169 L 277.697 128.354 L 277.747 128.642 L 278.24 128.556 Z M 278.241 128.566 L 278.353 129.053 L 278.472 129.026 L 278.566 128.946 L 278.241 128.566 Z M 278.232 128.568 L 278.121 128.08 L 278.121 128.08 L 278.232 128.568 Z M 278.223 128.57 L 278.715 128.484 L 278.664 128.189 L 278.379 128.095 L 278.223 128.57 Z M 150.225 182.474 L 149.725 182.492 L 149.742 182.964 L 150.214 182.974 L 150.225 182.474 Z M 266.236 122.123 L 266.555 121.738 L 266.555 121.738 L 266.236 122.123 Z M 206.766 80.149 L 207.239 79.987 L 207.239 79.986 L 206.766 80.149 Z M 197.682 28.014 L 197.892 27.56 L 197.169 27.225 L 197.182 28.022 L 197.682 28.014 Z M 276.839 124.498 L 276.552 124.908 L 276.998 125.22 L 277.271 124.75 L 276.839 124.498 Z M 182.34 98.776 L 181.884 98.982 L 182.054 99.357 L 182.455 99.263 L 182.34 98.776 Z M 66.375 87.262 L 66.102 86.843 L 65.703 87.104 L 65.944 87.515 L 66.375 87.262 Z M 173.339 98.223 L 173.731 98.534 L 174.354 97.749 L 173.352 97.724 L 173.339 98.223 Z M 226.597 66.652 L 226.971 66.32 L 226.97 66.319 L 226.597 66.652 Z M 220.825 79.535 L 220.412 79.816 L 220.412 79.816 L 220.825 79.535 Z M 341.448 165.13 L 341.345 164.641 L 341.344 164.641 L 341.448 165.13 Z M 387.473 218.993 L 386.993 218.851 L 386.993 218.851 L 387.473 218.993 Z M 408.382 43.068 L 408.641 43.496 C 428.019 31.773 446.17 21.007 459.477 13.172 C 466.13 9.254 471.572 6.069 475.351 3.864 C 477.24 2.761 478.714 1.903 479.715 1.321 C 480.215 1.03 480.598 0.808 480.855 0.658 C 480.984 0.584 481.081 0.527 481.146 0.49 C 481.179 0.471 481.203 0.456 481.22 0.447 C 481.228 0.442 481.234 0.439 481.238 0.436 C 481.24 0.435 481.242 0.434 481.243 0.433 C 481.243 0.433 481.244 0.433 481.244 0.433 C 481.244 0.433 481.244 0.433 480.994 0 C 480.743 -0.433 480.743 -0.433 480.743 -0.432 C 480.742 -0.432 480.742 -0.432 480.741 -0.432 C 480.74 -0.431 480.739 -0.43 480.737 -0.429 C 480.733 -0.427 480.726 -0.423 480.718 -0.418 C 480.702 -0.409 480.677 -0.394 480.645 -0.376 C 480.579 -0.338 480.482 -0.281 480.353 -0.206 C 480.096 -0.057 479.713 0.165 479.212 0.457 C 478.211 1.039 476.737 1.897 474.847 3 C 471.067 5.206 465.624 8.392 458.969 12.31 C 445.66 20.147 427.506 30.915 408.124 42.64 L 408.382 43.068 Z M 153.415 250.217 L 153.036 249.891 C 145.988 258.075 139.312 266.257 133.121 274.359 L 133.518 274.662 L 133.915 274.966 C 140.093 266.881 146.757 258.715 153.794 250.543 L 153.415 250.217 Z M 268.157 207.785 C 268.65 207.698 268.65 207.698 268.65 207.698 C 268.65 207.698 268.65 207.698 268.65 207.698 C 268.65 207.698 268.65 207.698 268.65 207.698 C 268.65 207.698 268.65 207.697 268.65 207.697 C 268.65 207.697 268.649 207.696 268.649 207.696 C 268.649 207.695 268.649 207.694 268.649 207.693 C 268.649 207.691 268.648 207.689 268.648 207.687 C 268.647 207.683 268.646 207.679 268.645 207.674 C 268.643 207.664 268.64 207.653 268.637 207.639 C 268.63 207.613 268.621 207.578 268.607 207.536 L 268.131 207.688 L 267.655 207.841 C 267.662 207.865 267.666 207.879 267.667 207.884 C 267.668 207.886 267.668 207.886 267.667 207.884 C 267.667 207.883 267.667 207.881 267.666 207.879 C 267.666 207.878 267.666 207.877 267.666 207.876 C 267.666 207.875 267.665 207.874 267.665 207.873 C 267.665 207.873 267.665 207.873 267.665 207.872 C 267.665 207.872 267.665 207.872 267.665 207.872 C 267.665 207.872 267.665 207.872 267.665 207.871 C 267.665 207.871 267.665 207.871 267.665 207.871 C 267.665 207.871 267.665 207.871 268.157 207.785 Z M 268.131 207.688 L 268.617 207.573 C 268.324 206.328 265.292 192.893 267.023 173.986 L 266.525 173.941 L 266.027 173.895 C 264.283 192.943 267.335 206.492 267.644 207.803 L 268.131 207.688 Z M 266.525 173.941 L 267.023 173.986 C 268.246 160.614 271.844 144.514 280.485 128.068 L 280.042 127.835 L 279.599 127.603 C 270.887 144.187 267.26 160.419 266.027 173.895 L 266.525 173.941 Z M 280.042 127.835 L 280.535 127.75 L 280.533 127.74 L 280.04 127.826 L 279.548 127.911 L 279.549 127.92 L 280.042 127.835 Z M 280.04 127.826 C 280.148 127.337 280.285 127.389 280.4 127.478 C 280.468 127.566 280.538 127.874 280.475 128.072 C 280.441 128.124 280.366 128.205 280.328 128.234 C 280.312 128.245 280.282 128.263 280.267 128.271 C 280.244 128.283 280.225 128.29 280.219 128.293 C 280.21 128.296 280.203 128.298 280.198 128.3 C 280.185 128.304 280.173 128.307 280.172 128.308 C 280.166 128.309 280.162 128.311 280.161 128.311 C 280.158 128.311 280.156 128.312 280.156 128.312 C 280.154 128.312 280.153 128.313 280.153 128.313 C 280.153 128.313 280.152 128.313 280.153 128.313 C 280.154 128.312 280.156 128.312 280.16 128.311 L 280.05 127.823 L 279.939 127.336 C 279.934 127.337 279.931 127.337 279.93 127.338 C 279.929 127.338 279.928 127.338 279.928 127.338 C 279.927 127.338 279.926 127.339 279.925 127.339 C 279.925 127.339 279.922 127.34 279.92 127.34 C 279.919 127.34 279.914 127.342 279.908 127.343 C 279.907 127.344 279.896 127.347 279.882 127.351 C 279.878 127.353 279.871 127.355 279.862 127.358 C 279.856 127.361 279.837 127.368 279.814 127.38 C 279.799 127.388 279.768 127.406 279.753 127.417 C 279.715 127.446 279.639 127.527 279.605 127.579 C 279.543 127.777 279.613 128.085 279.68 128.173 C 279.796 128.262 279.932 128.314 280.04 127.826 Z M 280.05 127.823 L 280.542 127.738 L 280.541 127.728 L 280.048 127.813 L 279.555 127.899 L 279.557 127.908 L 280.05 127.823 Z M 280.048 127.813 L 280.159 128.301 L 280.169 128.299 L 280.057 127.811 L 279.946 127.324 L 279.936 127.326 L 280.048 127.813 Z M 280.057 127.811 C 280 128.308 280.11 128.309 280.218 128.285 C 280.251 128.272 280.337 128.226 280.387 128.187 C 280.465 128.119 280.501 128.044 280.516 128.01 C 280.546 127.941 280.552 127.882 280.554 127.869 C 280.558 127.83 280.557 127.799 280.557 127.794 C 280.556 127.775 280.555 127.76 280.554 127.758 C 280.553 127.749 280.552 127.742 280.552 127.74 C 280.552 127.736 280.551 127.732 280.551 127.732 C 280.55 127.729 280.55 127.727 280.55 127.726 C 280.55 127.724 280.549 127.72 280.548 127.715 L 280.056 127.801 L 279.563 127.888 C 279.563 127.89 279.564 127.892 279.564 127.893 C 279.564 127.894 279.564 127.894 279.564 127.894 C 279.564 127.894 279.564 127.894 279.564 127.893 C 279.564 127.893 279.564 127.892 279.564 127.891 C 279.564 127.89 279.563 127.887 279.562 127.882 C 279.562 127.881 279.561 127.874 279.56 127.865 C 279.56 127.862 279.558 127.847 279.558 127.828 C 279.557 127.823 279.556 127.793 279.561 127.754 C 279.562 127.741 279.569 127.682 279.598 127.613 C 279.613 127.578 279.65 127.504 279.728 127.435 C 279.777 127.397 279.863 127.35 279.897 127.338 C 280.005 127.314 280.115 127.315 280.057 127.811 Z M 279.437 127.814 L 278.945 127.901 L 278.947 127.911 L 279.439 127.824 L 279.931 127.737 L 279.929 127.726 L 279.437 127.814 Z M 279.439 127.824 L 279.55 128.311 L 279.559 128.309 L 279.448 127.822 L 279.337 127.334 L 279.328 127.336 L 279.439 127.824 Z M 280.578 132.132 C 280.087 132.035 280.087 132.036 280.087 132.036 C 280.087 132.037 280.086 132.037 280.086 132.038 C 280.086 132.039 280.086 132.041 280.085 132.044 C 280.084 132.048 280.083 132.055 280.082 132.063 C 280.079 132.08 280.074 132.104 280.069 132.135 C 280.058 132.197 280.043 132.289 280.025 132.407 C 279.988 132.645 279.941 132.992 279.895 133.435 C 279.803 134.323 279.716 135.601 279.733 137.169 C 279.769 140.306 280.225 144.615 281.906 149.308 C 285.277 158.718 293.551 169.594 313.034 175.67 L 313.183 175.193 L 313.332 174.716 C 294.138 168.73 286.109 158.075 282.847 148.97 C 281.212 144.405 280.768 140.211 280.733 137.158 C 280.716 135.632 280.801 134.393 280.89 133.539 C 280.934 133.112 280.979 132.781 281.013 132.558 C 281.03 132.447 281.044 132.362 281.054 132.307 C 281.059 132.279 281.062 132.258 281.065 132.245 C 281.066 132.239 281.067 132.234 281.068 132.231 C 281.068 132.229 281.068 132.228 281.068 132.228 C 281.068 132.228 281.068 132.228 281.068 132.227 C 281.068 132.227 281.068 132.228 280.578 132.132 Z M 266.978 173.823 L 266.74 173.383 C 251.305 181.73 244.743 194.771 242.909 199.097 L 243.37 199.292 L 243.83 199.487 C 245.62 195.265 252.061 182.458 267.216 174.263 L 266.978 173.823 Z M 271.677 208.233 L 271.608 207.738 C 265.313 208.619 257.374 212.093 252.169 215.481 L 252.442 215.9 L 252.714 216.319 C 257.835 212.987 265.635 209.583 271.746 208.729 L 271.677 208.233 Z M 252.442 215.9 L 252.154 215.491 C 228.865 231.872 218.419 262.072 229.777 289.816 L 230.24 289.627 L 230.703 289.437 C 219.534 262.155 229.794 232.441 252.729 216.309 L 252.442 215.9 Z M 230.24 289.627 L 229.777 289.816 C 231.326 293.594 233.503 297.982 236.163 302.025 C 238.82 306.062 241.978 309.785 245.498 312.203 L 245.781 311.791 L 246.064 311.379 C 242.694 309.064 239.62 305.459 236.998 301.475 C 234.38 297.496 232.231 293.167 230.703 289.437 L 230.24 289.627 Z M 245.781 311.791 L 245.498 312.203 C 265.513 325.953 285.006 323.254 299.868 315.644 C 307.292 311.843 313.566 306.816 318.189 301.997 C 322.796 297.195 325.816 292.545 326.656 289.483 L 326.174 289.351 L 325.692 289.218 C 324.919 292.037 322.04 296.539 317.468 301.304 C 312.912 306.053 306.726 311.01 299.412 314.754 C 284.799 322.236 265.71 324.876 246.064 311.379 L 245.781 311.791 Z M 326.174 289.351 L 326.656 289.483 C 328.054 284.392 333.247 270.965 330.946 251.929 L 330.45 251.989 L 329.954 252.049 C 332.226 270.849 327.106 284.068 325.692 289.218 L 326.174 289.351 Z M 330.45 251.989 C 330.946 251.924 330.946 251.924 330.946 251.924 C 330.946 251.924 330.946 251.923 330.945 251.923 C 330.945 251.922 330.945 251.921 330.945 251.919 C 330.945 251.916 330.944 251.911 330.943 251.905 C 330.941 251.893 330.939 251.876 330.936 251.853 C 330.929 251.807 330.92 251.74 330.906 251.653 C 330.879 251.478 330.837 251.222 330.778 250.892 C 330.659 250.233 330.47 249.279 330.186 248.095 C 329.618 245.728 328.672 242.437 327.157 238.739 C 324.129 231.347 318.816 222.296 309.684 215.743 L 309.392 216.149 L 309.101 216.556 C 318.029 222.961 323.246 231.83 326.231 239.118 C 327.723 242.76 328.655 246 329.213 248.328 C 329.492 249.492 329.678 250.427 329.794 251.069 C 329.852 251.391 329.892 251.639 329.918 251.805 C 329.931 251.889 329.94 251.952 329.946 251.994 C 329.949 252.015 329.951 252.03 329.952 252.04 C 329.953 252.045 329.954 252.049 329.954 252.051 C 329.954 252.053 329.954 252.053 329.954 252.054 C 329.954 252.054 329.954 252.054 329.954 252.054 C 329.954 252.054 329.954 252.054 330.45 251.989 Z M 309.392 216.149 L 309.684 215.743 C 300.761 209.334 291.232 207.337 283.944 206.939 C 280.3 206.74 277.211 206.94 275.031 207.191 C 273.941 207.316 273.078 207.454 272.485 207.562 C 272.188 207.615 271.96 207.661 271.804 207.694 C 271.726 207.71 271.666 207.723 271.626 207.732 C 271.605 207.737 271.59 207.74 271.579 207.743 C 271.574 207.744 271.57 207.745 271.567 207.746 C 271.565 207.746 271.564 207.746 271.563 207.746 C 271.563 207.747 271.562 207.747 271.562 207.747 C 271.562 207.747 271.562 207.747 271.677 208.233 C 271.792 208.72 271.792 208.72 271.792 208.72 C 271.792 208.72 271.792 208.72 271.792 208.72 C 271.793 208.72 271.793 208.72 271.794 208.719 C 271.796 208.719 271.8 208.718 271.804 208.717 C 271.813 208.715 271.826 208.712 271.844 208.708 C 271.881 208.7 271.936 208.688 272.009 208.672 C 272.156 208.641 272.376 208.597 272.663 208.546 C 273.236 208.442 274.078 208.307 275.146 208.184 C 277.28 207.939 280.311 207.742 283.89 207.937 C 291.048 208.328 300.376 210.289 309.1 216.555 L 309.392 216.149 Z M 185.618 293.173 L 185.469 293.65 C 196.559 297.107 211.43 297.046 231.151 289.226 L 230.967 288.761 L 230.782 288.296 C 211.224 296.051 196.592 296.07 185.766 292.695 L 185.618 293.173 Z M 252.545 214.148 L 253.019 213.988 C 251.631 209.861 249.074 204.025 244.565 198.646 L 244.182 198.968 L 243.799 199.289 C 248.202 204.541 250.708 210.254 252.071 214.307 L 252.545 214.148 Z M 244.182 198.968 L 244.565 198.646 C 238.749 191.714 229.704 185.566 215.817 184.825 L 215.79 185.324 L 215.763 185.824 C 229.342 186.548 238.139 192.543 243.799 199.289 L 244.182 198.968 Z M 215.79 185.324 L 215.817 184.825 C 209.248 184.469 201.603 185.328 192.711 187.877 L 192.848 188.357 L 192.986 188.838 C 201.79 186.314 209.323 185.475 215.763 185.823 L 215.79 185.324 Z M 192.848 188.357 L 192.711 187.877 C 172.901 193.557 162.125 204.442 156.627 216.365 C 151.139 228.266 150.931 241.149 152.145 250.818 L 152.642 250.756 L 153.138 250.694 C 151.936 241.127 152.154 228.453 157.535 216.784 C 162.905 205.138 173.442 194.442 192.986 188.838 L 192.848 188.357 Z M 152.642 250.756 L 152.146 250.819 C 153.034 257.845 154.672 263.217 155.624 265.336 L 156.08 265.132 L 156.536 264.927 C 155.636 262.923 154.018 257.653 153.138 250.693 L 152.642 250.756 Z M 156.08 265.132 L 155.623 265.336 C 156.699 267.737 159.173 272.99 163.709 278.409 L 164.093 278.088 L 164.476 277.767 C 160.026 272.451 157.596 267.295 156.536 264.927 L 156.08 265.132 Z M 89.443 309.529 L 89.008 309.282 C 79.335 326.277 74.213 349.644 83.884 373.246 L 84.346 373.057 L 84.809 372.867 C 75.283 349.618 80.316 326.576 89.878 309.777 L 89.443 309.529 Z M 84.346 373.057 L 83.884 373.246 C 91.158 391.014 102.324 401.473 115.601 406.235 C 128.862 410.992 144.16 410.042 159.675 405.136 L 159.524 404.659 L 159.374 404.182 C 143.99 409.047 128.928 409.953 115.939 405.294 C 102.966 400.641 91.992 390.413 84.809 372.867 L 84.346 373.057 Z M 159.524 404.659 L 159.675 405.136 C 175.289 400.198 187.169 387.652 194.649 373.411 C 202.127 359.173 205.252 343.158 203.273 331.188 L 202.779 331.269 L 202.286 331.351 C 204.221 343.056 201.168 358.85 193.764 372.946 C 186.363 387.037 174.659 399.348 159.374 404.182 L 159.524 404.659 Z M 202.779 331.269 L 203.273 331.188 C 201.191 318.58 196.448 303.514 186.975 292.27 L 186.592 292.592 L 186.21 292.914 C 195.519 303.964 200.219 318.829 202.286 331.351 L 202.779 331.269 Z M 186.592 292.592 L 186.975 292.27 C 181.637 285.919 174.775 280.789 166.043 278.002 L 165.891 278.478 L 165.739 278.954 C 174.267 281.676 180.975 286.687 186.21 292.914 L 186.592 292.592 Z M 165.891 278.478 L 166.043 278.002 C 161.08 276.416 155.511 275.601 149.285 275.74 L 149.297 276.24 L 149.308 276.74 C 155.432 276.603 160.89 277.405 165.739 278.954 L 165.891 278.478 Z M 149.297 276.24 L 149.285 275.74 C 142.928 275.885 137.476 276.384 132.792 277.117 L 132.87 277.611 L 132.947 278.105 C 137.582 277.38 142.99 276.884 149.308 276.74 L 149.297 276.24 Z M 133.919 273.627 C 133.517 273.331 133.517 273.331 133.517 273.331 C 133.517 273.331 133.517 273.331 133.517 273.331 C 133.517 273.331 133.517 273.331 133.517 273.331 C 133.517 273.331 133.517 273.331 133.517 273.331 C 133.516 273.331 133.516 273.332 133.516 273.332 C 133.515 273.334 133.513 273.336 133.511 273.338 C 133.507 273.344 133.501 273.352 133.492 273.364 C 133.475 273.386 133.45 273.42 133.416 273.465 C 133.348 273.555 133.247 273.689 133.113 273.863 C 132.845 274.21 132.447 274.719 131.927 275.359 L 132.316 275.674 L 132.704 275.989 C 133.229 275.342 133.632 274.827 133.905 274.473 C 134.041 274.296 134.145 274.16 134.215 274.067 C 134.25 274.02 134.276 273.985 134.294 273.961 C 134.303 273.949 134.31 273.94 134.314 273.934 C 134.317 273.931 134.319 273.928 134.32 273.927 C 134.32 273.926 134.321 273.925 134.321 273.925 C 134.321 273.924 134.321 273.924 134.322 273.924 C 134.322 273.924 134.322 273.924 134.322 273.924 C 134.322 273.924 134.322 273.924 134.322 273.924 C 134.322 273.924 134.322 273.924 133.919 273.627 Z M 132.316 275.674 L 132.204 275.186 C 120.907 277.768 114.194 280.753 110.292 283.112 C 108.34 284.292 107.091 285.316 106.324 286.055 C 105.94 286.424 105.677 286.722 105.507 286.933 C 105.422 287.038 105.36 287.121 105.318 287.181 C 105.297 287.211 105.281 287.234 105.269 287.252 C 105.264 287.26 105.259 287.267 105.255 287.273 C 105.254 287.276 105.252 287.278 105.251 287.28 C 105.25 287.281 105.25 287.282 105.249 287.283 C 105.249 287.283 105.249 287.284 105.249 287.284 C 105.248 287.284 105.248 287.285 105.674 287.546 C 106.101 287.807 106.1 287.808 106.1 287.808 C 106.1 287.808 106.1 287.809 106.1 287.809 C 106.1 287.809 106.099 287.809 106.099 287.81 C 106.099 287.81 106.099 287.81 106.099 287.809 C 106.1 287.808 106.102 287.806 106.104 287.802 C 106.11 287.793 106.12 287.779 106.135 287.758 C 106.164 287.716 106.213 287.65 106.284 287.561 C 106.428 287.384 106.663 287.116 107.017 286.775 C 107.726 286.092 108.915 285.113 110.809 283.968 C 114.598 281.677 121.205 278.726 132.427 276.161 L 132.316 275.674 Z M 105.674 287.546 L 105.369 287.15 C 99.431 291.727 93.363 298.717 88.466 307.333 L 88.901 307.58 L 89.336 307.827 C 94.176 299.31 100.161 292.427 105.98 287.942 L 105.674 287.546 Z M 88.901 307.58 L 88.793 307.092 C 82.934 308.391 76.933 308.247 71.066 305.86 L 70.877 306.323 L 70.689 306.786 C 76.777 309.263 82.99 309.403 89.009 308.068 L 88.901 307.58 Z M 70.877 306.323 L 71.066 305.86 C 60.278 301.472 53.088 294.301 48.341 286.495 L 47.914 286.755 L 47.487 287.014 C 52.33 294.979 59.677 302.307 70.689 306.786 L 70.877 306.323 Z M 47.914 286.755 L 48.341 286.495 C 40.058 272.886 38.9 261.747 39.773 251.277 L 39.274 251.236 L 38.776 251.194 C 37.889 261.838 39.076 273.197 47.487 287.015 L 47.914 286.755 Z M 39.274 251.236 L 39.773 251.277 C 40.329 244.574 43.112 238.871 45.769 234.833 C 47.096 232.817 48.388 231.221 49.347 230.131 C 49.826 229.587 50.222 229.169 50.497 228.888 C 50.634 228.747 50.741 228.641 50.813 228.571 C 50.849 228.536 50.876 228.51 50.894 228.493 C 50.903 228.484 50.91 228.478 50.914 228.474 C 50.917 228.472 50.918 228.47 50.919 228.469 C 50.919 228.469 50.92 228.469 50.92 228.468 C 50.92 228.468 50.92 228.468 50.92 228.468 C 50.92 228.468 50.92 228.468 50.579 228.103 C 50.237 227.738 50.237 227.738 50.237 227.738 C 50.237 227.738 50.236 227.738 50.236 227.739 C 50.236 227.739 50.235 227.74 50.234 227.74 C 50.233 227.742 50.231 227.744 50.228 227.747 C 50.222 227.752 50.214 227.759 50.204 227.769 C 50.184 227.789 50.154 227.817 50.115 227.855 C 50.037 227.931 49.925 228.042 49.782 228.188 C 49.496 228.481 49.088 228.912 48.596 229.471 C 47.612 230.589 46.291 232.221 44.933 234.284 C 42.221 238.405 39.351 244.268 38.776 251.194 L 39.274 251.236 Z M 50.579 228.103 L 50.964 228.422 C 58.011 219.892 69.639 212.923 82.218 210.496 C 94.787 208.071 108.26 210.188 119.062 219.757 L 119.393 219.383 L 119.725 219.009 C 108.643 209.191 94.834 207.044 82.029 209.514 C 69.235 211.982 57.397 219.066 50.193 227.785 L 50.579 228.103 Z M 119.393 219.383 L 119.062 219.757 C 129.861 229.325 133.468 242.736 134.36 253.812 C 134.806 259.345 134.573 264.279 134.228 267.828 C 134.055 269.603 133.855 271.03 133.699 272.013 C 133.62 272.504 133.553 272.883 133.505 273.139 C 133.481 273.267 133.462 273.365 133.449 273.429 C 133.443 273.461 133.438 273.486 133.435 273.502 C 133.433 273.51 133.432 273.515 133.431 273.519 C 133.431 273.521 133.43 273.522 133.43 273.523 C 133.43 273.524 133.43 273.524 133.43 273.524 C 133.43 273.524 133.43 273.524 133.919 273.627 C 134.409 273.73 134.409 273.73 134.409 273.73 C 134.409 273.729 134.409 273.729 134.409 273.728 C 134.409 273.727 134.41 273.725 134.41 273.723 C 134.411 273.718 134.413 273.711 134.414 273.702 C 134.418 273.685 134.423 273.658 134.43 273.624 C 134.444 273.556 134.463 273.455 134.488 273.323 C 134.537 273.058 134.606 272.67 134.686 272.17 C 134.846 271.17 135.049 269.722 135.223 267.925 C 135.572 264.332 135.809 259.338 135.357 253.732 C 134.455 242.531 130.799 228.82 119.725 219.009 L 119.393 219.383 Z M 85.289 371.341 L 84.902 371.026 C 75.192 382.942 64.064 388.125 53.373 388.653 C 42.669 389.182 32.345 385.047 24.255 378.22 L 23.933 378.602 L 23.61 378.984 C 31.862 385.948 42.427 390.195 53.422 389.652 C 64.429 389.108 75.809 383.766 85.677 371.657 L 85.289 371.341 Z M 23.933 378.602 L 24.255 378.22 C 19.635 374.319 15.74 369.536 12.943 364.262 L 12.501 364.496 L 12.059 364.73 C 14.918 370.121 18.895 375.004 23.61 378.984 L 23.933 378.602 Z M 12.501 364.496 L 12.943 364.262 C 9.67 358.092 7.755 351.704 6.923 345.39 L 6.427 345.456 L 5.931 345.521 C 6.778 351.946 8.728 358.45 12.059 364.73 L 12.501 364.496 Z M 6.427 345.456 L 6.923 345.389 C 4.515 327.394 10.851 310.087 19.205 300.549 L 18.829 300.22 L 18.453 299.891 C 9.906 309.648 3.486 327.244 5.931 345.522 L 6.427 345.456 Z M 18.829 300.22 L 19.206 300.549 C 23.19 295.998 28.783 292.924 34.372 290.854 C 39.956 288.785 45.5 287.733 49.348 287.204 L 49.28 286.708 L 49.212 286.213 C 45.322 286.748 39.7 287.813 34.024 289.916 C 28.353 292.017 22.589 295.166 18.453 299.891 L 18.829 300.22 Z M 12.296 346.736 C 12.536 346.298 12.536 346.298 12.536 346.298 C 12.536 346.298 12.536 346.298 12.535 346.298 C 12.535 346.297 12.534 346.297 12.533 346.297 C 12.532 346.296 12.53 346.294 12.527 346.293 C 12.521 346.29 12.513 346.286 12.503 346.28 C 12.482 346.269 12.452 346.253 12.413 346.233 C 12.336 346.193 12.223 346.136 12.08 346.066 C 11.794 345.928 11.384 345.741 10.887 345.542 C 9.896 345.147 8.54 344.702 7.106 344.523 C 5.678 344.344 4.123 344.423 2.777 345.131 C 1.41 345.851 0.33 347.181 -0.201 349.354 L 0.285 349.473 L 0.771 349.591 C 1.245 347.65 2.169 346.581 3.243 346.016 C 4.337 345.44 5.66 345.349 6.982 345.515 C 8.3 345.68 9.569 346.094 10.517 346.471 C 10.988 346.659 11.376 346.837 11.644 346.967 C 11.779 347.032 11.883 347.084 11.953 347.121 C 11.988 347.139 12.014 347.153 12.031 347.162 C 12.04 347.167 12.046 347.17 12.05 347.172 C 12.052 347.173 12.054 347.174 12.054 347.174 C 12.055 347.175 12.055 347.175 12.055 347.175 C 12.055 347.175 12.055 347.175 12.055 347.175 C 12.055 347.175 12.055 347.175 12.296 346.736 Z M 0.285 349.473 L -0.201 349.354 C -1.265 353.711 0.67 356.777 3.051 359.682 C 5.458 362.62 8.279 365.374 9.486 369.291 L 9.964 369.144 L 10.442 368.996 C 9.16 364.836 6.137 361.87 3.824 359.048 C 1.485 356.195 -0.175 353.464 0.771 349.591 L 0.285 349.473 Z M 9.964 369.144 L 9.486 369.291 C 10.71 373.263 10.816 377.928 11.185 381.995 C 11.367 384.005 11.615 385.877 12.115 387.392 C 12.616 388.908 13.396 390.147 14.698 390.773 L 14.914 390.323 L 15.131 389.872 C 14.18 389.415 13.526 388.475 13.065 387.079 C 12.603 385.681 12.362 383.909 12.18 381.905 C 11.822 377.942 11.706 373.101 10.442 368.996 L 9.964 369.144 Z M 14.914 390.323 L 14.698 390.774 C 17.124 391.935 20.056 391.653 22.23 389.602 C 24.396 387.559 25.727 383.843 25.195 378.284 L 24.697 378.331 L 24.2 378.379 C 24.714 383.761 23.405 387.119 21.544 388.875 C 19.69 390.624 17.208 390.866 15.13 389.872 L 14.914 390.323 Z M 59.858 254.026 L 60.159 254.426 C 60.643 254.062 61.012 253.447 61.319 252.75 C 61.633 252.039 61.913 251.17 62.182 250.228 C 62.73 248.315 63.236 246.115 63.923 244.046 C 64.609 241.978 65.439 240.174 66.562 239.082 C 67.115 238.545 67.727 238.191 68.424 238.053 C 69.122 237.915 69.947 237.985 70.934 238.367 L 71.114 237.9 L 71.294 237.434 C 70.168 236.999 69.15 236.89 68.23 237.072 C 67.309 237.254 66.529 237.72 65.865 238.365 C 64.557 239.636 63.667 241.642 62.974 243.73 C 62.281 245.817 61.746 248.119 61.221 249.953 C 60.954 250.884 60.69 251.7 60.404 252.346 C 60.113 253.007 59.828 253.423 59.558 253.627 L 59.858 254.026 Z M 71.114 237.9 L 70.934 238.367 C 74.947 239.917 77.167 243.729 77.976 247.483 C 78.38 249.354 78.425 251.178 78.178 252.646 C 77.927 254.145 77.395 255.153 76.762 255.561 L 77.033 255.981 L 77.304 256.401 C 78.301 255.759 78.9 254.39 79.165 252.812 C 79.435 251.203 79.381 249.25 78.954 247.272 C 78.103 243.327 75.733 239.149 71.294 237.434 L 71.114 237.9 Z M 77.033 255.981 L 76.762 255.561 C 75.161 256.593 72.659 257.885 70.464 258.58 C 69.36 258.929 68.381 259.112 67.649 259.063 C 66.928 259.015 66.576 258.763 66.441 258.354 L 65.966 258.51 L 65.491 258.667 C 65.805 259.622 66.653 259.999 67.583 260.061 C 68.501 260.122 69.622 259.895 70.765 259.533 C 73.065 258.806 75.647 257.469 77.304 256.401 L 77.033 255.981 Z M 65.966 258.51 L 66.441 258.354 C 66.037 257.126 66.288 256.048 66.722 255.446 C 66.94 255.143 67.179 254.993 67.371 254.953 C 67.539 254.919 67.733 254.953 67.947 255.169 L 68.303 254.817 L 68.658 254.465 C 68.23 254.033 67.7 253.864 67.169 253.974 C 66.662 254.079 66.228 254.421 65.91 254.862 C 65.272 255.748 64.997 257.165 65.491 258.667 L 65.966 258.51 Z M 68.303 254.817 L 67.95 255.172 C 67.949 255.171 67.966 255.189 67.997 255.24 C 68.026 255.289 68.06 255.356 68.098 255.445 C 68.175 255.622 68.259 255.861 68.347 256.16 C 68.523 256.755 68.705 257.553 68.876 258.496 C 69.217 260.378 69.507 262.802 69.619 265.268 C 69.731 267.737 69.664 270.224 69.3 272.241 C 69.119 273.25 68.866 274.122 68.537 274.81 C 68.206 275.5 67.815 275.969 67.376 276.225 L 67.628 276.657 L 67.88 277.089 C 68.553 276.696 69.058 276.036 69.438 275.242 C 69.82 274.445 70.093 273.479 70.284 272.418 C 70.667 270.298 70.732 267.728 70.618 265.222 C 70.504 262.713 70.209 260.244 69.86 258.317 C 69.685 257.355 69.496 256.519 69.306 255.876 C 69.212 255.556 69.114 255.275 69.015 255.047 C 68.923 254.833 68.807 254.613 68.655 254.463 L 68.303 254.817 Z M 67.628 276.657 L 67.376 276.225 C 66.477 276.75 65.174 276.626 63.639 275.954 C 62.129 275.293 60.524 274.153 59.139 272.882 C 57.752 271.609 56.623 270.239 56.04 269.141 C 55.744 268.584 55.62 268.153 55.624 267.866 C 55.626 267.731 55.656 267.65 55.689 267.6 C 55.719 267.553 55.775 267.5 55.891 267.456 L 55.714 266.988 L 55.537 266.521 C 55.253 266.628 55.016 266.803 54.853 267.05 C 54.693 267.294 54.628 267.572 54.624 267.851 C 54.616 268.39 54.834 269.001 55.157 269.61 C 55.812 270.844 57.028 272.302 58.463 273.619 C 59.901 274.939 61.597 276.151 63.238 276.87 C 64.854 277.578 66.553 277.863 67.88 277.089 L 67.628 276.657 Z M 55.714 266.988 L 55.891 267.456 C 56.675 267.159 57.27 266.995 57.723 266.935 C 58.177 266.875 58.447 266.924 58.616 267.008 C 58.776 267.086 58.908 267.224 59.025 267.48 C 59.148 267.748 59.238 268.111 59.322 268.593 L 59.814 268.507 L 60.307 268.421 C 60.22 267.923 60.113 267.455 59.935 267.065 C 59.751 266.664 59.48 266.318 59.057 266.11 C 58.645 265.907 58.154 265.869 57.591 265.944 C 57.029 266.018 56.353 266.212 55.537 266.521 L 55.714 266.988 Z M 59.814 268.507 L 59.322 268.593 C 59.339 268.691 59.312 268.933 59.147 269.33 C 58.99 269.706 58.738 270.156 58.401 270.637 C 57.726 271.6 56.744 272.643 55.61 273.427 C 54.472 274.214 53.224 274.711 52.003 274.659 C 50.806 274.608 49.553 274.026 48.384 272.488 L 47.986 272.79 L 47.588 273.093 C 48.907 274.828 50.419 275.592 51.96 275.658 C 53.477 275.723 54.939 275.107 56.179 274.25 C 57.422 273.39 58.486 272.258 59.22 271.211 C 59.587 270.687 59.879 270.173 60.07 269.715 C 60.252 269.277 60.375 268.813 60.307 268.421 L 59.814 268.507 Z M 47.986 272.79 L 48.384 272.488 C 46.02 269.379 45.943 265.511 46.975 262.445 C 47.491 260.913 48.274 259.611 49.154 258.725 C 50.042 257.832 50.968 257.416 51.789 257.498 L 51.839 257.001 L 51.889 256.503 C 50.651 256.379 49.444 257.015 48.445 258.02 C 47.438 259.034 46.583 260.477 46.028 262.126 C 44.918 265.422 44.974 269.656 47.588 273.093 L 47.986 272.79 Z M 51.839 257.001 L 51.791 257.498 C 54.001 257.712 56.11 256.918 57.635 256.105 C 58.404 255.695 59.038 255.273 59.48 254.953 C 59.702 254.792 59.876 254.657 59.996 254.561 C 60.056 254.513 60.102 254.475 60.134 254.448 C 60.15 254.435 60.163 254.424 60.172 254.417 C 60.176 254.413 60.179 254.41 60.182 254.408 C 60.183 254.407 60.184 254.406 60.185 254.405 C 60.185 254.405 60.185 254.405 60.186 254.404 C 60.186 254.404 60.186 254.404 60.186 254.404 C 60.186 254.404 60.186 254.404 59.858 254.026 C 59.53 253.649 59.531 253.649 59.531 253.649 C 59.531 253.649 59.531 253.649 59.531 253.649 C 59.531 253.649 59.531 253.649 59.531 253.649 C 59.53 253.649 59.53 253.649 59.529 253.65 C 59.528 253.651 59.526 253.653 59.523 253.656 C 59.516 253.661 59.507 253.669 59.493 253.681 C 59.466 253.703 59.425 253.737 59.371 253.78 C 59.262 253.867 59.101 253.993 58.894 254.142 C 58.479 254.442 57.884 254.839 57.165 255.222 C 55.715 255.996 53.814 256.689 51.887 256.503 L 51.839 257.001 Z M 274.263 281.409 L 274.382 281.895 C 274.938 281.759 275.28 281.249 275.512 280.749 C 275.758 280.218 275.957 279.523 276.141 278.755 C 276.326 277.983 276.502 277.101 276.692 276.191 C 276.884 275.275 277.09 274.324 277.337 273.392 C 277.836 271.515 278.485 269.785 279.452 268.625 C 279.93 268.052 280.475 267.631 281.109 267.392 C 281.74 267.155 282.492 267.087 283.404 267.271 L 283.503 266.78 L 283.602 266.29 C 282.531 266.074 281.586 266.144 280.756 266.457 C 279.929 266.768 279.248 267.309 278.684 267.985 C 277.569 269.322 276.876 271.233 276.371 273.136 C 276.116 274.095 275.905 275.068 275.714 275.986 C 275.521 276.909 275.349 277.769 275.168 278.523 C 274.987 279.28 274.806 279.893 274.605 280.328 C 274.389 280.794 274.218 280.906 274.144 280.924 L 274.263 281.409 Z M 283.503 266.78 L 283.404 267.271 C 287.126 268.022 289.388 271.014 290.503 274.294 C 291.059 275.928 291.32 277.608 291.333 279.061 C 291.346 280.531 291.106 281.704 290.723 282.367 L 291.156 282.618 L 291.589 282.868 C 292.103 281.977 292.347 280.593 292.333 279.052 C 292.319 277.494 292.041 275.708 291.45 273.972 C 290.273 270.511 287.809 267.139 283.602 266.29 L 283.503 266.78 Z M 291.156 282.618 L 290.723 282.367 C 289.92 283.757 288.572 284.283 287.559 284.165 C 287.054 284.106 286.661 283.892 286.428 283.584 C 286.201 283.284 286.077 282.828 286.233 282.172 L 285.746 282.056 L 285.26 281.94 C 285.048 282.83 285.191 283.605 285.629 284.186 C 286.061 284.758 286.728 285.074 287.443 285.158 C 288.869 285.325 290.595 284.588 291.589 282.868 L 291.156 282.618 Z M 285.746 282.056 L 286.233 282.172 C 286.256 282.074 286.329 281.919 286.488 281.709 C 286.643 281.504 286.861 281.27 287.142 281.014 C 287.704 280.501 288.483 279.926 289.419 279.338 C 291.289 278.161 293.739 276.957 296.216 276.101 C 298.704 275.24 301.165 274.75 303.075 274.949 C 304.025 275.048 304.806 275.314 305.389 275.757 C 305.963 276.194 306.379 276.828 306.565 277.74 L 307.055 277.64 L 307.545 277.54 C 307.315 276.411 306.777 275.557 305.995 274.962 C 305.222 274.374 304.247 274.066 303.179 273.954 C 301.053 273.733 298.428 274.278 295.889 275.156 C 293.339 276.037 290.82 277.275 288.886 278.491 C 287.92 279.099 287.088 279.709 286.468 280.275 C 286.158 280.558 285.893 280.837 285.69 281.106 C 285.49 281.37 285.329 281.652 285.26 281.94 L 285.746 282.056 Z M 307.055 277.64 L 306.565 277.74 C 307.369 281.684 306.408 286.174 304.405 289.676 C 302.392 293.196 299.415 295.58 296.275 295.571 L 296.273 296.071 L 296.272 296.571 C 299.933 296.582 303.179 293.833 305.273 290.173 C 307.376 286.496 308.405 281.76 307.545 277.54 L 307.055 277.64 Z M 296.273 296.071 L 296.275 295.571 C 292.997 295.561 291.041 294.553 289.513 293.714 C 288.76 293.301 288.039 292.884 287.322 292.692 C 286.561 292.487 285.798 292.53 284.952 292.985 L 285.189 293.425 L 285.426 293.865 C 286.036 293.537 286.535 293.516 287.063 293.657 C 287.634 293.811 288.228 294.15 289.032 294.591 C 290.618 295.461 292.749 296.56 296.272 296.571 L 296.273 296.071 Z M 285.189 293.425 L 284.952 292.985 C 284.403 293.281 284.131 293.846 283.988 294.441 C 283.844 295.044 283.807 295.781 283.811 296.569 C 283.815 297.36 283.861 298.247 283.898 299.149 C 283.936 300.058 283.964 300.992 283.935 301.908 C 283.877 303.756 283.585 305.442 282.745 306.639 C 281.934 307.794 280.55 308.58 278.077 308.503 L 278.061 309.003 L 278.046 309.503 C 280.774 309.588 282.517 308.705 283.563 307.214 C 284.579 305.766 284.875 303.83 284.935 301.939 C 284.965 300.986 284.935 300.021 284.898 299.108 C 284.86 298.188 284.815 297.331 284.811 296.563 C 284.807 295.792 284.845 295.155 284.961 294.674 C 285.077 294.187 285.248 293.961 285.426 293.865 L 285.189 293.425 Z M 278.061 309.003 L 278.077 308.503 C 273.233 308.351 270.53 304.076 269.38 299.54 C 268.81 297.296 268.645 295.06 268.783 293.384 C 268.852 292.542 268.996 291.871 269.185 291.417 C 269.39 290.926 269.571 290.857 269.616 290.852 L 269.564 290.355 L 269.511 289.858 C 268.878 289.924 268.492 290.481 268.262 291.032 C 268.017 291.621 267.86 292.407 267.786 293.302 C 267.638 295.098 267.816 297.445 268.41 299.786 C 269.586 304.422 272.488 309.329 278.046 309.503 L 278.061 309.003 Z M 269.564 290.355 L 269.614 290.853 C 270.956 290.717 271.831 290.813 272.394 291.16 C 272.918 291.484 273.287 292.102 273.405 293.349 L 273.903 293.302 L 274.401 293.255 C 274.269 291.86 273.824 290.868 272.919 290.309 C 272.054 289.776 270.885 289.719 269.513 289.858 L 269.564 290.355 Z M 273.903 293.302 L 273.405 293.349 C 273.455 293.88 273.282 294.682 272.809 295.505 C 272.342 296.317 271.604 297.11 270.578 297.64 C 268.556 298.685 265.25 298.781 260.412 295.58 L 260.136 295.997 L 259.86 296.414 C 264.874 299.731 268.577 299.8 271.037 298.528 C 272.253 297.9 273.125 296.963 273.676 296.003 C 274.222 295.054 274.475 294.045 274.401 293.255 L 273.903 293.302 Z M 260.136 295.997 L 260.412 295.58 C 258.027 293.999 256.701 292.197 256.096 290.393 C 255.491 288.585 255.595 286.73 256.146 285.023 C 256.697 283.313 257.694 281.765 258.848 280.593 C 260.009 279.413 261.29 278.653 262.39 278.452 L 262.3 277.96 L 262.21 277.468 C 260.839 277.719 259.383 278.624 258.135 279.891 C 256.881 281.165 255.797 282.846 255.194 284.716 C 254.59 286.589 254.463 288.666 255.148 290.71 C 255.834 292.758 257.319 294.73 259.86 296.413 L 260.136 295.997 Z M 262.3 277.96 L 262.391 278.452 C 264.601 278.043 265.751 279.135 267.342 280.349 C 268.126 280.947 269.01 281.56 270.145 281.906 C 271.289 282.254 272.65 282.319 274.382 281.895 L 274.263 281.409 L 274.144 280.924 C 272.562 281.311 271.386 281.238 270.436 280.949 C 269.478 280.657 268.711 280.136 267.949 279.554 C 266.449 278.409 264.932 276.965 262.209 277.468 L 262.3 277.96 Z M 132.086 364.089 L 132.055 364.588 C 132.632 364.624 133.101 364.222 133.453 363.808 C 133.828 363.367 134.202 362.754 134.58 362.066 C 134.96 361.375 135.362 360.574 135.783 359.751 C 136.207 358.923 136.655 358.065 137.137 357.238 C 138.108 355.571 139.182 354.096 140.403 353.267 C 141.005 352.859 141.631 352.617 142.291 352.576 C 142.95 352.536 143.681 352.694 144.501 353.146 L 144.742 352.708 L 144.983 352.27 C 144.024 351.741 143.106 351.525 142.23 351.578 C 141.355 351.632 140.56 351.953 139.842 352.44 C 138.423 353.402 137.257 355.047 136.273 356.735 C 135.777 357.586 135.319 358.464 134.893 359.295 C 134.465 360.13 134.074 360.91 133.704 361.585 C 133.331 362.263 132.997 362.801 132.691 363.16 C 132.363 363.546 132.179 363.594 132.117 363.59 L 132.086 364.089 Z M 144.742 352.708 L 144.501 353.146 C 147.848 354.991 149.211 358.573 149.406 362.084 C 149.503 363.833 149.307 365.536 148.935 366.945 C 148.559 368.372 148.021 369.43 147.485 369.952 L 147.834 370.31 L 148.182 370.669 C 148.912 369.959 149.509 368.691 149.902 367.2 C 150.3 365.69 150.507 363.882 150.404 362.029 C 150.199 358.335 148.751 354.347 144.983 352.27 L 144.742 352.708 Z M 147.834 370.31 L 147.484 369.953 C 146.363 371.048 144.953 371.155 144.022 370.737 C 143.556 370.528 143.232 370.201 143.088 369.822 C 142.948 369.454 142.954 368.97 143.275 368.386 L 142.837 368.145 L 142.398 367.905 C 141.96 368.705 141.894 369.493 142.153 370.177 C 142.409 370.85 142.954 371.354 143.612 371.649 C 144.926 372.239 146.774 372.045 148.183 370.668 L 147.834 370.31 Z M 142.837 368.145 L 143.275 368.386 C 143.322 368.3 143.43 368.174 143.635 368.02 C 143.835 367.869 144.103 367.709 144.437 367.546 C 145.104 367.219 145.995 366.897 147.039 366.608 C 149.126 366.031 151.771 365.6 154.35 365.514 C 156.94 365.427 159.407 365.689 161.169 366.453 C 162.045 366.833 162.72 367.325 163.16 367.933 C 163.595 368.533 163.824 369.279 163.759 370.22 L 164.258 370.254 L 164.757 370.288 C 164.837 369.131 164.552 368.151 163.971 367.347 C 163.395 366.552 162.553 365.963 161.567 365.536 C 159.604 364.685 156.964 364.425 154.317 364.514 C 151.658 364.603 148.935 365.046 146.773 365.644 C 145.692 365.943 144.738 366.285 143.997 366.647 C 143.627 366.829 143.3 367.02 143.033 367.221 C 142.772 367.418 142.541 367.645 142.398 367.905 L 142.837 368.145 Z M 164.258 370.254 L 163.759 370.22 C 163.481 374.278 161.38 378.331 158.554 381.115 C 155.714 383.913 152.263 385.323 149.287 384.377 L 149.136 384.854 L 148.984 385.33 C 152.471 386.438 156.294 384.745 159.255 381.828 C 162.231 378.897 164.46 374.623 164.757 370.288 L 164.258 370.254 Z M 149.136 384.854 L 149.288 384.377 C 146.172 383.382 144.576 381.821 143.344 380.552 C 142.736 379.927 142.163 379.311 141.534 378.912 C 140.867 378.489 140.127 378.3 139.195 378.488 L 139.294 378.978 L 139.394 379.468 C 140.053 379.335 140.532 379.461 140.998 379.756 C 141.503 380.076 141.979 380.582 142.626 381.249 C 143.902 382.562 145.636 384.261 148.984 385.33 L 149.136 384.854 Z M 139.294 378.978 L 139.195 378.488 C 138.582 378.613 138.169 379.086 137.876 379.619 C 137.579 380.159 137.349 380.861 137.144 381.623 C 136.939 382.39 136.748 383.261 136.545 384.144 C 136.34 385.034 136.12 385.946 135.851 386.823 C 135.307 388.595 134.585 390.133 133.475 391.034 C 132.411 391.899 130.897 392.247 128.568 391.432 L 128.403 391.903 L 128.237 392.375 C 130.807 393.275 132.707 392.947 134.106 391.811 C 135.459 390.711 136.251 388.925 136.807 387.117 C 137.088 386.204 137.314 385.262 137.52 384.368 C 137.727 383.468 137.911 382.626 138.11 381.882 C 138.31 381.135 138.516 380.53 138.752 380.101 C 138.992 379.664 139.21 379.506 139.394 379.468 L 139.294 378.978 Z M 128.403 391.903 L 128.568 391.432 C 123.996 389.83 122.553 384.87 122.658 380.135 C 122.709 377.792 123.143 375.579 123.717 374 C 124.005 373.207 124.319 372.602 124.617 372.221 C 124.941 371.809 125.121 371.808 125.152 371.814 L 125.252 371.324 L 125.351 370.835 C 124.719 370.706 124.194 371.14 123.83 371.604 C 123.44 372.101 123.083 372.816 122.777 373.659 C 122.162 375.351 121.712 377.673 121.658 380.113 C 121.551 384.945 123.011 390.545 128.237 392.375 L 128.403 391.903 Z M 125.252 371.324 L 125.152 371.814 C 126.46 372.081 127.27 372.436 127.719 372.947 C 128.141 373.428 128.327 374.15 128.109 375.39 L 128.602 375.477 L 129.094 375.563 C 129.338 374.174 129.175 373.09 128.47 372.287 C 127.792 371.515 126.696 371.109 125.351 370.835 L 125.252 371.324 Z M 128.602 375.477 L 128.109 375.39 C 128.017 375.92 127.639 376.643 126.975 377.294 C 126.319 377.937 125.412 378.48 124.302 378.685 C 122.113 379.088 118.943 378.197 115.183 373.644 L 114.797 373.962 L 114.412 374.281 C 118.295 378.983 121.797 380.163 124.484 379.668 C 125.812 379.423 126.894 378.774 127.675 378.008 C 128.449 377.25 128.957 376.348 129.094 375.563 L 128.602 375.477 Z M 114.797 373.962 L 115.183 373.644 C 113.329 371.399 112.542 369.255 112.444 367.323 C 112.346 365.389 112.937 363.625 113.91 362.142 C 114.885 360.655 116.239 359.458 117.642 358.672 C 119.054 357.881 120.467 357.532 121.56 357.666 L 121.621 357.17 L 121.683 356.674 C 120.308 356.505 118.678 356.945 117.154 357.8 C 115.62 358.659 114.143 359.963 113.074 361.593 C 112.003 363.226 111.335 365.197 111.446 367.374 C 111.556 369.553 112.444 371.897 114.412 374.281 L 114.797 373.962 Z M 121.621 357.17 L 121.561 357.666 C 123.772 357.934 124.584 359.342 125.778 360.995 C 126.365 361.808 127.042 362.663 128.028 363.335 C 129.021 364.012 130.296 364.483 132.056 364.588 L 132.086 364.089 L 132.116 363.59 C 130.515 363.494 129.419 363.073 128.591 362.509 C 127.755 361.939 127.161 361.202 126.589 360.41 C 125.465 358.854 124.405 357.004 121.682 356.674 L 121.621 357.17 Z M 348.61 213.616 L 348.574 214.115 C 349.424 214.175 350.026 214.363 350.456 214.619 C 350.88 214.872 351.161 215.206 351.351 215.608 C 351.747 216.447 351.75 217.584 351.671 218.898 C 351.596 220.152 351.444 221.573 351.656 222.761 C 351.764 223.37 351.972 223.955 352.357 224.451 C 352.746 224.952 353.291 225.333 354.02 225.567 L 354.172 225.091 L 354.325 224.615 C 353.768 224.436 353.4 224.164 353.147 223.838 C 352.891 223.507 352.73 223.09 352.64 222.586 C 352.456 221.549 352.589 220.301 352.669 218.957 C 352.746 217.673 352.775 216.284 352.255 215.181 C 351.987 214.612 351.575 214.122 350.968 213.76 C 350.368 213.402 349.603 213.186 348.646 213.117 L 348.61 213.616 Z M 354.172 225.091 L 354.021 225.567 C 355.804 226.135 357.777 226.985 359.143 228.369 C 360.478 229.721 361.264 231.613 360.643 234.388 L 361.131 234.497 L 361.619 234.606 C 362.315 231.496 361.426 229.259 359.855 227.667 C 358.314 226.106 356.15 225.196 354.324 224.614 L 354.172 225.091 Z M 361.131 234.497 L 360.643 234.388 C 360.416 235.401 359.548 236.622 358.198 237.706 C 356.861 238.78 355.109 239.671 353.21 240.056 C 351.315 240.44 349.287 240.319 347.372 239.392 C 345.459 238.464 343.614 236.711 342.121 233.753 L 341.675 233.978 L 341.228 234.203 C 342.801 237.319 344.79 239.252 346.936 240.292 C 349.08 241.33 351.337 241.456 353.409 241.036 C 355.477 240.617 357.373 239.651 358.824 238.486 C 360.262 237.331 361.322 235.931 361.619 234.606 L 361.131 234.497 Z M 341.675 233.978 L 342.121 233.752 C 341.362 232.251 341.461 231.381 341.776 230.903 C 342.105 230.403 342.81 230.11 343.742 230.085 C 344.656 230.06 345.657 230.301 346.398 230.707 C 347.168 231.131 347.487 231.624 347.446 232.05 L 347.943 232.098 L 348.441 232.146 C 348.542 231.101 347.752 230.31 346.879 229.831 C 345.976 229.335 344.799 229.055 343.715 229.085 C 342.648 229.114 341.535 229.452 340.941 230.352 C 340.334 231.273 340.404 232.573 341.229 234.203 L 341.675 233.978 Z M 347.943 232.098 L 347.446 232.05 C 347.392 232.604 347.128 233.542 346.668 234.652 C 346.211 235.752 345.577 236.984 344.807 238.121 C 344.035 239.262 343.14 240.287 342.17 240.993 C 341.203 241.699 340.192 242.066 339.162 241.96 L 339.111 242.457 L 339.06 242.955 C 340.41 243.093 341.663 242.601 342.759 241.802 C 343.854 241.004 344.824 239.879 345.635 238.682 C 346.447 237.482 347.112 236.189 347.591 235.035 C 348.066 233.891 348.373 232.847 348.441 232.147 L 347.943 232.098 Z M 339.111 242.457 L 339.161 241.96 C 336.869 241.726 334.658 240.766 333.272 239.161 C 331.907 237.582 331.29 235.32 332.264 232.333 L 331.788 232.178 L 331.313 232.023 C 330.241 235.311 330.9 237.946 332.515 239.815 C 334.109 241.66 336.582 242.702 339.06 242.955 L 339.111 242.457 Z M 331.788 232.178 L 332.264 232.333 C 332.895 230.395 334.31 229.738 335.95 228.519 C 336.753 227.923 337.568 227.207 338.238 226.149 C 338.909 225.09 339.416 223.718 339.649 221.829 L 339.153 221.768 L 338.657 221.707 C 338.438 223.476 337.972 224.701 337.393 225.614 C 336.815 226.527 336.106 227.157 335.354 227.716 C 333.886 228.807 332.07 229.697 331.313 232.023 L 331.788 232.178 Z M 339.153 221.768 L 339.649 221.829 C 340.036 218.683 340.833 216.692 342.184 215.519 C 343.528 214.351 345.531 213.899 348.575 214.115 L 348.61 213.616 L 348.646 213.117 C 345.506 212.894 343.172 213.336 341.528 214.764 C 339.892 216.185 339.052 218.489 338.656 221.707 L 339.153 221.768 Z M 167.803 229.71 L 168.146 230.074 C 168.572 229.672 168.942 229.521 169.257 229.498 C 169.574 229.476 169.911 229.579 170.28 229.826 C 171.042 230.336 171.801 231.361 172.547 232.591 C 172.915 233.196 173.269 233.832 173.611 234.452 C 173.952 235.068 174.285 235.673 174.601 236.201 C 174.916 236.726 175.231 237.201 175.542 237.551 C 175.829 237.873 176.22 238.213 176.698 238.216 L 176.701 237.716 L 176.705 237.216 C 176.708 237.216 176.674 237.217 176.593 237.165 C 176.513 237.113 176.411 237.023 176.289 236.886 C 176.042 236.609 175.767 236.2 175.459 235.687 C 175.153 235.177 174.831 234.591 174.487 233.968 C 174.144 233.348 173.781 232.697 173.402 232.072 C 172.656 230.843 171.801 229.64 170.836 228.995 C 170.342 228.664 169.788 228.458 169.186 228.501 C 168.583 228.543 168.006 228.831 167.46 229.347 L 167.803 229.71 Z M 176.701 237.716 L 176.701 238.216 C 177.227 238.217 177.681 237.995 178.063 237.693 C 178.442 237.394 178.779 236.994 179.084 236.581 C 179.39 236.169 179.687 235.709 179.966 235.293 C 180.252 234.867 180.523 234.481 180.796 234.172 C 181.072 233.859 181.317 233.666 181.538 233.579 C 181.732 233.502 181.933 233.497 182.188 233.626 C 182.467 233.768 182.823 234.079 183.255 234.682 C 183.684 235.28 184.164 236.13 184.704 237.303 L 185.158 237.094 L 185.613 236.885 C 185.058 235.68 184.547 234.768 184.068 234.099 C 183.592 233.436 183.124 232.98 182.641 232.734 C 182.134 232.477 181.635 232.466 181.172 232.648 C 180.735 232.82 180.364 233.15 180.047 233.51 C 179.725 233.873 179.423 234.309 179.136 234.736 C 178.843 235.173 178.568 235.598 178.28 235.987 C 177.993 236.375 177.718 236.692 177.443 236.909 C 177.172 237.123 176.931 237.217 176.702 237.216 L 176.701 237.716 Z M 185.158 237.094 L 184.704 237.303 C 186.832 241.922 186.12 245.46 184.703 247.516 C 183.987 248.554 183.097 249.208 182.298 249.465 C 181.502 249.72 180.859 249.573 180.464 249.127 L 180.09 249.458 L 179.715 249.789 C 180.45 250.62 181.554 250.754 182.604 250.417 C 183.652 250.08 184.71 249.267 185.526 248.083 C 187.173 245.695 187.865 241.775 185.613 236.885 L 185.158 237.094 Z M 180.09 249.458 L 180.464 249.127 C 179.435 247.964 179.506 247.084 179.755 246.602 C 179.89 246.34 180.09 246.164 180.268 246.08 C 180.357 246.038 180.428 246.025 180.475 246.024 C 180.498 246.024 180.512 246.027 180.521 246.029 C 180.529 246.032 180.532 246.034 180.532 246.034 L 180.822 245.627 L 181.112 245.22 C 180.71 244.933 180.213 245.001 179.842 245.176 C 179.455 245.358 179.098 245.696 178.866 246.143 C 178.383 247.08 178.484 248.398 179.715 249.789 L 180.09 249.458 Z M 180.822 245.627 L 180.535 246.036 C 180.498 246.01 180.521 246.016 180.603 246.142 C 180.671 246.247 180.758 246.397 180.858 246.592 C 181.058 246.981 181.302 247.523 181.559 248.185 C 182.073 249.507 182.632 251.282 183.007 253.219 C 183.764 257.138 183.729 261.531 181.295 264.291 L 181.67 264.622 L 182.045 264.952 C 184.811 261.816 184.755 256.994 183.988 253.03 C 183.601 251.026 183.024 249.193 182.491 247.822 C 182.225 247.137 181.967 246.562 181.747 246.134 C 181.638 245.921 181.534 245.738 181.44 245.595 C 181.36 245.472 181.247 245.314 181.109 245.218 L 180.822 245.627 Z M 181.67 264.622 L 181.294 264.291 C 180.71 264.955 180.107 265.267 179.509 265.351 C 178.903 265.436 178.244 265.296 177.545 264.948 C 176.131 264.244 174.671 262.754 173.403 261.007 C 172.143 259.27 171.116 257.339 170.548 255.824 C 170.262 255.061 170.106 254.437 170.078 254.011 C 170.065 253.794 170.088 253.674 170.109 253.622 C 170.12 253.593 170.106 253.634 170.059 253.644 L 169.948 253.157 L 169.836 252.67 C 169.502 252.746 169.288 252.98 169.18 253.252 C 169.08 253.501 169.063 253.791 169.08 254.074 C 169.117 254.646 169.313 255.378 169.612 256.176 C 170.215 257.782 171.286 259.792 172.594 261.594 C 173.894 263.386 175.469 265.032 177.099 265.843 C 177.921 266.252 178.786 266.463 179.649 266.341 C 180.52 266.218 181.329 265.765 182.045 264.952 L 181.67 264.622 Z M 169.948 253.157 L 170.059 253.644 C 170.568 253.528 171.159 253.508 171.711 253.584 C 172.27 253.661 172.743 253.83 173.047 254.052 C 173.335 254.262 173.433 254.484 173.399 254.734 C 173.357 255.034 173.11 255.507 172.371 256.14 L 172.697 256.52 L 173.022 256.9 C 173.829 256.208 174.298 255.532 174.389 254.871 C 174.488 254.16 174.135 253.608 173.637 253.244 C 173.153 252.891 172.503 252.684 171.848 252.593 C 171.187 252.502 170.474 252.524 169.836 252.67 L 169.948 253.157 Z M 172.697 256.52 L 172.371 256.14 C 170.945 257.364 169.038 257.738 167.481 256.879 C 165.921 256.019 164.522 253.818 164.373 249.483 L 163.874 249.5 L 163.374 249.517 C 163.528 254.016 164.995 256.65 166.998 257.755 C 169.003 258.86 171.357 258.327 173.022 256.9 L 172.697 256.52 Z M 163.874 249.5 L 164.373 249.483 C 164.298 247.299 164.565 246.113 164.939 245.47 C 165.28 244.883 165.737 244.706 166.294 244.651 C 166.59 244.622 166.894 244.629 167.232 244.634 C 167.554 244.639 167.914 244.641 168.251 244.582 C 168.598 244.521 168.955 244.389 169.253 244.101 C 169.549 243.813 169.738 243.415 169.834 242.91 L 169.343 242.816 L 168.852 242.722 C 168.782 243.089 168.665 243.278 168.556 243.384 C 168.447 243.489 168.299 243.558 168.078 243.597 C 167.847 243.638 167.578 243.639 167.247 243.634 C 166.932 243.63 166.561 243.62 166.195 243.656 C 165.43 243.731 164.626 244.019 164.074 244.968 C 163.555 245.862 163.297 247.284 163.374 249.517 L 163.874 249.5 Z M 169.343 242.816 L 169.834 242.91 C 170.033 241.868 169.652 240.769 169.157 239.723 C 168.905 239.19 168.609 238.643 168.316 238.099 C 168.021 237.551 167.727 237.002 167.465 236.448 C 166.94 235.335 166.574 234.252 166.601 233.201 C 166.627 232.176 167.028 231.129 168.146 230.074 L 167.803 229.71 L 167.46 229.347 C 166.165 230.568 165.635 231.861 165.601 233.175 C 165.568 234.463 166.015 235.718 166.561 236.875 C 166.835 237.457 167.142 238.028 167.436 238.573 C 167.732 239.124 168.015 239.646 168.253 240.15 C 168.739 241.178 168.986 242.02 168.852 242.722 L 169.343 242.816 Z M 389.617 53.952 C 389.365 53.521 389.365 53.521 389.364 53.521 C 389.364 53.521 389.363 53.522 389.363 53.522 C 389.362 53.523 389.36 53.523 389.358 53.524 C 389.355 53.527 389.35 53.529 389.344 53.533 C 389.331 53.541 389.313 53.552 389.29 53.566 C 389.244 53.594 389.178 53.636 389.092 53.691 C 388.921 53.802 388.674 53.969 388.364 54.193 C 387.744 54.643 386.87 55.327 385.847 56.27 C 383.799 58.157 381.149 61.084 378.719 65.256 C 373.854 73.61 369.894 86.915 373.354 106.775 L 373.847 106.689 L 374.339 106.604 C 370.918 86.963 374.843 73.899 379.584 65.76 C 381.956 61.685 384.539 58.835 386.524 57.005 C 387.517 56.091 388.359 55.432 388.951 55.003 C 389.246 54.789 389.479 54.632 389.637 54.53 C 389.715 54.479 389.775 54.441 389.814 54.417 C 389.834 54.405 389.849 54.396 389.858 54.391 C 389.863 54.388 389.866 54.386 389.868 54.385 C 389.869 54.384 389.869 54.384 389.87 54.384 C 389.87 54.384 389.87 54.384 389.87 54.384 C 389.87 54.384 389.869 54.384 389.617 53.952 Z M 373.847 106.689 L 373.354 106.775 C 376.815 126.642 385.423 139.104 393.186 146.601 C 397.065 150.347 400.73 152.851 403.429 154.419 C 404.779 155.203 405.887 155.754 406.661 156.109 C 407.048 156.287 407.352 156.416 407.56 156.502 C 407.664 156.544 407.744 156.576 407.799 156.597 C 407.826 156.608 407.848 156.616 407.862 156.621 C 407.869 156.624 407.875 156.626 407.879 156.627 C 407.881 156.628 407.883 156.629 407.884 156.629 C 407.885 156.629 407.885 156.63 407.886 156.63 C 407.886 156.63 407.886 156.63 408.058 156.16 C 408.229 155.691 408.229 155.691 408.229 155.691 C 408.229 155.691 408.229 155.691 408.229 155.69 C 408.228 155.69 408.227 155.69 408.226 155.689 C 408.223 155.689 408.219 155.687 408.213 155.685 C 408.202 155.68 408.184 155.674 408.159 155.664 C 408.11 155.645 408.036 155.616 407.938 155.576 C 407.743 155.496 407.452 155.372 407.079 155.201 C 406.331 154.857 405.251 154.321 403.931 153.554 C 401.291 152.02 397.694 149.564 393.881 145.882 C 386.259 138.521 377.762 126.247 374.339 106.604 L 373.847 106.689 Z M 408.058 156.16 L 408.466 156.449 C 428.609 127.958 426.433 97.075 422.721 72.117 L 422.226 72.191 L 421.731 72.264 C 425.438 97.18 427.554 127.718 407.649 155.872 L 408.058 156.16 Z M 422.226 72.191 L 422.721 72.118 C 420.68 58.341 414.078 48.442 407.746 43.664 L 407.445 44.063 L 407.144 44.462 C 413.24 49.062 419.724 58.713 421.731 72.264 L 422.226 72.191 Z M 407.445 44.063 L 407.746 43.664 C 406.919 43.04 406.098 42.507 405.299 42.061 L 405.055 42.498 L 404.812 42.935 C 405.569 43.357 406.353 43.865 407.143 44.462 L 407.445 44.063 Z M 405.055 42.498 L 405.297 42.06 C 403.112 40.853 401.312 40.595 399.663 40.931 C 398.043 41.26 396.625 42.153 395.2 43.109 L 395.478 43.524 L 395.757 43.94 C 397.192 42.977 398.46 42.196 399.862 41.911 C 401.235 41.631 402.794 41.82 404.814 42.936 L 405.055 42.498 Z M 395.478 43.524 L 395.2 43.109 C 393.159 44.478 391.942 45.973 391.484 47.425 C 391.019 48.901 391.354 50.29 392.324 51.33 C 394.225 53.37 398.378 53.934 403.27 51.856 L 403.075 51.396 L 402.879 50.936 C 398.15 52.944 394.533 52.235 393.056 50.649 C 392.336 49.876 392.079 48.864 392.438 47.726 C 392.804 46.565 393.826 45.234 395.757 43.94 L 395.478 43.524 Z M 403.075 51.396 L 403.269 51.857 C 405.458 50.934 407.987 47.919 407.945 44.058 L 407.445 44.063 L 406.945 44.068 C 406.982 47.512 404.706 50.165 402.88 50.935 L 403.075 51.396 Z M 407.445 44.063 L 407.945 44.068 C 407.954 43.138 407.85 42.147 407.64 41.114 L 407.15 41.213 L 406.66 41.313 C 406.858 42.288 406.953 43.209 406.945 44.058 L 407.445 44.063 Z M 407.15 41.213 L 407.641 41.116 C 406.064 33.146 398.188 22.192 377.409 12.168 L 377.192 12.618 L 376.975 13.068 C 397.624 23.03 405.171 33.784 406.66 41.31 L 407.15 41.213 Z M 377.192 12.618 L 377.409 12.168 C 360.152 3.844 340.881 0.933 325.944 0.098 C 318.472 -0.32 312.076 -0.218 307.547 -0.013 C 305.282 0.09 303.484 0.219 302.25 0.323 C 301.634 0.375 301.158 0.42 300.836 0.452 C 300.675 0.469 300.553 0.482 300.47 0.491 C 300.429 0.495 300.397 0.499 300.376 0.501 C 300.366 0.502 300.358 0.503 300.352 0.504 C 300.349 0.504 300.347 0.504 300.346 0.505 C 300.345 0.505 300.345 0.505 300.344 0.505 C 300.344 0.505 300.344 0.505 300.401 1.002 C 300.459 1.498 300.459 1.498 300.46 1.498 C 300.46 1.498 300.46 1.498 300.461 1.498 C 300.462 1.498 300.464 1.498 300.466 1.497 C 300.471 1.497 300.478 1.496 300.488 1.495 C 300.508 1.493 300.538 1.489 300.578 1.485 C 300.658 1.476 300.778 1.463 300.937 1.447 C 301.253 1.416 301.723 1.371 302.334 1.319 C 303.556 1.217 305.342 1.089 307.593 0.986 C 312.095 0.782 318.456 0.681 325.889 1.097 C 340.76 1.928 359.884 4.825 376.975 13.068 L 377.192 12.618 Z M 300.401 1.002 C 299.989 1.284 299.989 1.284 299.989 1.284 C 299.989 1.284 299.989 1.285 299.99 1.285 C 299.991 1.286 299.992 1.288 299.993 1.29 C 299.996 1.294 300 1.3 300.005 1.308 C 300.016 1.324 300.033 1.348 300.054 1.379 C 300.097 1.442 300.161 1.535 300.246 1.658 C 300.415 1.903 300.665 2.264 300.991 2.731 C 301.643 3.665 302.595 5.021 303.8 6.708 C 306.211 10.083 309.632 14.786 313.677 20.1 C 321.765 30.724 332.358 43.808 342.355 53.6 L 342.705 53.243 L 343.055 52.886 C 333.111 43.145 322.552 30.108 314.473 19.494 C 310.435 14.19 307.02 9.495 304.614 6.127 C 303.411 4.443 302.461 3.09 301.811 2.159 C 301.487 1.693 301.237 1.333 301.069 1.09 C 300.985 0.968 300.921 0.875 300.878 0.813 C 300.857 0.782 300.841 0.758 300.83 0.743 C 300.825 0.735 300.821 0.729 300.818 0.725 C 300.817 0.723 300.816 0.722 300.815 0.721 C 300.815 0.72 300.815 0.72 300.814 0.72 C 300.814 0.719 300.814 0.719 300.401 1.002 Z M 342.705 53.243 L 342.824 53.728 C 356.821 50.305 368.4 50.725 372.998 51.18 L 373.047 50.682 L 373.096 50.185 C 368.414 49.721 356.717 49.301 342.587 52.757 L 342.705 53.243 Z M 373.047 50.682 L 372.998 51.18 C 375.363 51.414 377.193 52.2 378.357 53.279 C 379.511 54.349 380.025 55.714 379.785 57.199 C 379.542 58.704 378.511 60.407 376.412 62.083 C 374.316 63.757 371.184 65.376 366.819 66.71 L 366.965 67.188 L 367.112 67.667 C 371.557 66.308 374.813 64.639 377.036 62.865 C 379.256 61.092 380.476 59.187 380.772 57.359 C 381.071 55.512 380.412 53.821 379.037 52.546 C 377.672 51.281 375.617 50.434 373.097 50.185 L 373.047 50.682 Z M 366.965 67.188 L 366.819 66.71 C 364.185 67.515 360.677 66.474 356.539 63.949 C 352.429 61.443 347.823 57.55 343.055 52.885 L 342.705 53.243 L 342.356 53.6 C 347.145 58.286 351.814 62.239 356.018 64.803 C 360.193 67.35 364.036 68.606 367.111 67.667 L 366.965 67.188 Z M 342.705 53.243 L 342.587 52.757 C 326.929 56.582 308.264 65.177 292.849 83.745 L 293.233 84.064 L 293.618 84.384 C 308.868 66.016 327.326 57.515 342.824 53.728 L 342.705 53.243 Z M 293.233 84.064 C 293.147 84.557 293.148 84.557 293.148 84.557 C 293.148 84.557 293.149 84.557 293.149 84.557 C 293.151 84.557 293.153 84.558 293.155 84.558 C 293.16 84.559 293.167 84.56 293.176 84.562 C 293.194 84.565 293.221 84.569 293.256 84.575 C 293.327 84.587 293.431 84.604 293.568 84.625 C 293.842 84.668 294.246 84.729 294.768 84.801 C 295.813 84.944 297.332 85.131 299.235 85.307 C 303.04 85.659 308.383 85.966 314.537 85.788 C 326.832 85.431 342.417 83.134 355.433 75.331 L 355.176 74.902 L 354.919 74.473 C 342.115 82.149 326.728 84.434 314.508 84.788 C 308.403 84.965 303.101 84.661 299.327 84.312 C 297.44 84.137 295.936 83.952 294.904 83.81 C 294.388 83.739 293.991 83.68 293.723 83.637 C 293.589 83.616 293.487 83.6 293.42 83.589 C 293.386 83.583 293.361 83.579 293.344 83.576 C 293.335 83.574 293.329 83.573 293.325 83.573 C 293.323 83.572 293.322 83.572 293.321 83.572 C 293.32 83.572 293.32 83.572 293.32 83.572 C 293.32 83.572 293.32 83.572 293.233 84.064 Z M 355.176 74.902 L 354.903 74.483 C 339.902 84.274 312.609 101.067 303.277 108.147 L 303.579 108.545 L 303.881 108.943 C 313.177 101.891 340.387 85.152 355.449 75.32 L 355.176 74.902 Z M 303.579 108.545 L 303.277 108.146 C 295.818 113.802 287.251 120.547 277.923 128.169 L 278.24 128.556 L 278.556 128.943 C 287.875 121.328 296.433 114.59 303.881 108.943 L 303.579 108.545 Z M 278.24 128.556 L 277.747 128.642 C 277.748 128.647 277.748 128.649 277.748 128.65 C 277.749 128.651 277.749 128.651 277.748 128.651 C 277.748 128.651 277.748 128.65 277.748 128.65 C 277.748 128.649 277.748 128.648 277.748 128.647 C 277.748 128.647 277.748 128.645 277.747 128.643 C 277.747 128.642 277.747 128.639 277.746 128.634 C 277.746 128.633 277.745 128.626 277.744 128.617 C 277.744 128.614 277.742 128.601 277.742 128.585 C 277.741 128.571 277.742 128.543 277.743 128.53 C 277.795 128.34 277.917 128.185 278.241 128.566 C 278.566 128.946 278.687 128.791 278.74 128.602 C 278.741 128.589 278.741 128.561 278.741 128.546 C 278.74 128.53 278.739 128.517 278.739 128.514 C 278.738 128.506 278.737 128.499 278.737 128.497 C 278.736 128.493 278.735 128.489 278.735 128.489 C 278.735 128.486 278.735 128.484 278.735 128.484 C 278.734 128.483 278.734 128.482 278.734 128.482 C 278.734 128.481 278.734 128.481 278.734 128.481 C 278.734 128.48 278.734 128.48 278.734 128.479 C 278.733 128.478 278.733 128.475 278.732 128.47 L 278.24 128.556 Z M 278.241 128.566 L 278.13 128.078 L 278.121 128.08 L 278.232 128.568 L 278.343 129.055 L 278.353 129.053 L 278.241 128.566 Z M 278.232 128.568 L 278.121 128.08 C 278.116 128.081 278.113 128.082 278.112 128.082 C 278.111 128.083 278.11 128.083 278.11 128.083 C 278.109 128.083 278.108 128.083 278.107 128.083 C 278.107 128.084 278.105 128.084 278.102 128.085 C 278.102 128.085 278.098 128.086 278.092 128.087 C 278.091 128.088 278.082 128.09 278.07 128.094 C 278.069 128.094 278.046 128.101 278.017 128.114 C 278.007 128.119 277.986 128.13 277.975 128.136 C 277.95 128.151 277.9 128.188 277.874 128.211 C 277.793 128.314 277.723 128.56 277.736 128.685 C 277.854 128.908 278.066 129.045 278.223 128.57 C 278.379 128.095 278.591 128.232 278.709 128.455 C 278.723 128.58 278.652 128.825 278.571 128.929 C 278.546 128.952 278.495 128.989 278.47 129.004 C 278.46 129.01 278.438 129.021 278.428 129.026 C 278.4 129.038 278.376 129.046 278.375 129.046 C 278.364 129.05 278.354 129.052 278.353 129.053 C 278.348 129.054 278.344 129.055 278.343 129.055 C 278.341 129.056 278.339 129.056 278.338 129.056 C 278.337 129.057 278.336 129.057 278.336 129.057 C 278.336 129.057 278.335 129.057 278.336 129.057 C 278.337 129.057 278.339 129.056 278.343 129.055 L 278.232 128.568 Z M 278.223 128.57 L 277.73 128.656 L 277.732 128.666 L 278.224 128.58 L 278.717 128.494 L 278.715 128.484 L 278.223 128.57 Z M 232.854 168.509 L 232.518 168.138 C 226.632 173.461 220.677 178.941 214.726 184.552 L 215.069 184.916 L 215.412 185.28 C 221.358 179.674 227.307 174.199 233.189 168.88 L 232.854 168.509 Z M 266.937 142.971 C 266.574 142.627 266.574 142.627 266.574 142.627 C 266.574 142.627 266.574 142.627 266.574 142.627 C 266.573 142.628 266.573 142.629 266.572 142.63 C 266.57 142.632 266.566 142.635 266.562 142.64 C 266.553 142.649 266.54 142.663 266.522 142.681 C 266.486 142.718 266.432 142.774 266.361 142.847 C 266.217 142.993 266.001 143.209 265.716 143.489 C 265.145 144.049 264.294 144.862 263.179 145.87 C 260.949 147.886 257.663 150.683 253.443 153.797 C 245.001 160.026 232.833 167.521 217.922 172.594 L 218.083 173.067 L 218.244 173.54 C 233.278 168.426 245.537 160.873 254.036 154.601 C 258.287 151.465 261.599 148.647 263.85 146.612 C 264.975 145.594 265.836 144.772 266.416 144.203 C 266.706 143.919 266.926 143.698 267.074 143.548 C 267.148 143.472 267.204 143.415 267.241 143.376 C 267.26 143.356 267.274 143.341 267.284 143.331 C 267.289 143.326 267.293 143.322 267.295 143.32 C 267.297 143.318 267.297 143.317 267.298 143.317 C 267.299 143.316 267.299 143.316 267.299 143.316 C 267.299 143.316 267.299 143.315 266.937 142.971 Z M 218.083 173.067 L 217.922 172.594 C 203.005 177.667 186.087 180.015 172.883 181.092 C 166.285 181.63 160.62 181.851 156.606 181.936 C 154.599 181.979 153.005 181.989 151.913 181.987 C 151.367 181.987 150.947 181.983 150.663 181.98 C 150.522 181.978 150.414 181.977 150.342 181.976 C 150.307 181.975 150.279 181.975 150.262 181.974 C 150.253 181.974 150.246 181.974 150.241 181.974 C 150.239 181.974 150.238 181.974 150.236 181.974 C 150.236 181.974 150.236 181.974 150.235 181.974 C 150.235 181.974 150.235 181.974 150.225 182.474 C 150.214 182.974 150.215 182.974 150.215 182.974 C 150.215 182.974 150.216 182.974 150.216 182.974 C 150.218 182.974 150.22 182.974 150.222 182.974 C 150.227 182.974 150.234 182.974 150.243 182.974 C 150.262 182.975 150.29 182.975 150.326 182.976 C 150.4 182.977 150.509 182.978 150.652 182.98 C 150.939 182.983 151.362 182.987 151.912 182.987 C 153.01 182.989 154.612 182.979 156.627 182.936 C 160.657 182.85 166.342 182.629 172.965 182.088 C 186.203 181.009 203.214 178.652 218.244 173.54 L 218.083 173.067 Z M 150.225 182.474 C 150.724 182.455 150.724 182.456 150.724 182.456 C 150.724 182.456 150.724 182.456 150.724 182.456 C 150.724 182.456 150.724 182.456 150.724 182.455 C 150.724 182.454 150.724 182.452 150.724 182.448 C 150.724 182.441 150.724 182.429 150.724 182.411 C 150.724 182.377 150.724 182.324 150.725 182.251 C 150.729 182.106 150.738 181.885 150.763 181.588 C 150.812 180.996 150.924 180.106 151.171 178.932 C 151.665 176.586 152.703 173.108 154.881 168.624 C 159.237 159.655 168.157 146.657 186.416 130.65 L 186.086 130.274 L 185.757 129.898 C 167.418 145.975 158.407 159.076 153.981 168.187 C 151.769 172.742 150.704 176.298 150.192 178.726 C 149.937 179.94 149.819 180.872 149.766 181.505 C 149.74 181.822 149.729 182.063 149.726 182.229 C 149.724 182.311 149.723 182.375 149.724 182.419 C 149.724 182.441 149.724 182.458 149.724 182.47 C 149.725 182.476 149.725 182.481 149.725 182.485 C 149.725 182.487 149.725 182.488 149.725 182.489 C 149.725 182.49 149.725 182.491 149.725 182.491 C 149.725 182.492 149.725 182.492 150.225 182.474 Z M 186.086 130.274 L 186.416 130.65 C 204.603 114.707 222.896 111.377 237.432 112.675 C 251.997 113.976 262.788 119.923 265.918 122.509 L 266.236 122.123 L 266.555 121.738 C 263.261 119.016 252.276 112.997 237.521 111.679 C 222.738 110.359 204.168 113.759 185.757 129.898 L 186.086 130.274 Z M 266.236 122.123 L 265.917 122.508 C 269.097 125.141 270.169 127.637 269.378 129.585 C 268.974 130.58 268.056 131.535 266.487 132.361 C 264.918 133.187 262.734 133.864 259.871 134.314 L 259.949 134.808 L 260.027 135.302 C 262.955 134.841 265.254 134.14 266.953 133.246 C 268.65 132.353 269.783 131.247 270.304 129.961 C 271.365 127.35 269.788 124.415 266.555 121.738 L 266.236 122.123 Z M 259.949 134.808 L 259.871 134.314 C 258.548 134.522 256.851 134.232 254.843 133.463 C 252.843 132.696 250.58 131.472 248.144 129.867 C 243.273 126.657 237.758 121.958 232.346 116.472 C 221.512 105.488 211.172 91.432 207.239 79.987 L 206.766 80.149 L 206.293 80.311 C 210.297 91.963 220.757 106.146 231.634 117.174 C 237.078 122.693 242.647 127.442 247.594 130.702 C 250.067 132.331 252.396 133.596 254.485 134.397 C 256.566 135.194 258.455 135.549 260.027 135.302 L 259.949 134.808 Z M 206.766 80.149 L 207.239 79.986 C 202.936 67.469 200.671 54.473 199.482 44.599 C 198.887 39.664 198.562 35.513 198.386 32.596 C 198.298 31.138 198.247 29.989 198.218 29.205 C 198.203 28.813 198.194 28.512 198.189 28.31 C 198.186 28.209 198.184 28.132 198.183 28.081 C 198.183 28.056 198.182 28.037 198.182 28.024 C 198.182 28.018 198.182 28.013 198.182 28.01 C 198.182 28.008 198.182 28.007 198.182 28.006 C 198.182 28.006 198.182 28.006 198.182 28.006 C 198.182 28.005 198.182 28.005 197.682 28.014 C 197.182 28.022 197.182 28.022 197.182 28.022 C 197.182 28.023 197.182 28.023 197.182 28.024 C 197.182 28.024 197.182 28.026 197.182 28.028 C 197.182 28.031 197.182 28.036 197.182 28.043 C 197.183 28.056 197.183 28.076 197.184 28.103 C 197.185 28.155 197.187 28.234 197.189 28.336 C 197.195 28.542 197.204 28.846 197.218 29.242 C 197.248 30.033 197.299 31.19 197.388 32.657 C 197.565 35.589 197.892 39.761 198.489 44.719 C 199.683 54.631 201.959 67.703 206.293 80.312 L 206.766 80.149 Z M 197.682 28.014 C 197.472 28.467 197.472 28.468 197.472 28.468 C 197.472 28.468 197.473 28.468 197.473 28.468 C 197.474 28.469 197.476 28.469 197.478 28.47 C 197.482 28.472 197.488 28.475 197.496 28.479 C 197.513 28.487 197.538 28.498 197.571 28.514 C 197.638 28.545 197.738 28.593 197.87 28.656 C 198.134 28.782 198.526 28.972 199.034 29.224 C 200.052 29.728 201.538 30.483 203.408 31.482 C 207.149 33.481 212.428 36.458 218.572 40.372 C 230.864 48.2 246.608 59.765 260.443 74.718 L 260.81 74.378 L 261.177 74.039 C 247.265 59.002 231.445 47.385 219.11 39.528 C 212.94 35.599 207.639 32.609 203.879 30.6 C 201.999 29.595 200.504 28.836 199.478 28.328 C 198.966 28.074 198.57 27.882 198.302 27.754 C 198.168 27.69 198.066 27.642 197.997 27.609 C 197.963 27.593 197.937 27.581 197.919 27.573 C 197.91 27.569 197.904 27.565 197.899 27.563 C 197.897 27.562 197.895 27.561 197.894 27.561 C 197.893 27.561 197.893 27.56 197.893 27.56 C 197.892 27.56 197.892 27.56 197.682 28.014 Z M 260.81 74.378 L 260.443 74.718 C 274.252 89.642 278.2 102.067 278.731 110.715 C 278.996 115.044 278.407 118.441 277.755 120.749 C 277.429 121.903 277.088 122.785 276.83 123.375 C 276.701 123.669 276.593 123.891 276.519 124.038 C 276.481 124.111 276.452 124.165 276.433 124.2 C 276.423 124.217 276.416 124.23 276.412 124.238 C 276.41 124.242 276.408 124.245 276.407 124.246 C 276.407 124.247 276.407 124.247 276.407 124.247 C 276.407 124.247 276.407 124.247 276.407 124.247 C 276.407 124.247 276.407 124.247 276.839 124.498 C 277.271 124.75 277.271 124.749 277.272 124.749 C 277.272 124.749 277.272 124.748 277.272 124.748 C 277.273 124.746 277.274 124.745 277.275 124.743 C 277.277 124.74 277.279 124.735 277.283 124.729 C 277.289 124.718 277.299 124.701 277.31 124.68 C 277.334 124.637 277.367 124.574 277.409 124.492 C 277.492 124.329 277.609 124.089 277.746 123.775 C 278.021 123.147 278.378 122.222 278.718 121.02 C 279.396 118.616 280.002 115.106 279.729 110.654 C 279.182 101.739 275.116 89.104 261.177 74.039 L 260.81 74.378 Z M 276.839 124.498 L 277.126 124.089 L 277.115 124.081 L 276.828 124.491 L 276.541 124.9 L 276.552 124.908 L 276.839 124.498 Z M 216.737 106.537 C 216.922 106.073 216.922 106.072 216.922 106.072 C 216.922 106.072 216.921 106.072 216.921 106.072 C 216.92 106.072 216.919 106.071 216.917 106.071 C 216.914 106.069 216.909 106.067 216.903 106.065 C 216.891 106.06 216.873 106.053 216.848 106.043 C 216.8 106.024 216.729 105.996 216.635 105.96 C 216.449 105.887 216.174 105.781 215.821 105.646 C 215.115 105.377 214.098 104.996 212.847 104.545 C 210.347 103.643 206.914 102.464 203.188 101.353 C 199.462 100.242 195.434 99.197 191.743 98.568 C 188.069 97.942 184.666 97.715 182.226 98.29 L 182.34 98.776 L 182.455 99.263 C 184.688 98.738 187.923 98.931 191.575 99.554 C 195.21 100.174 199.196 101.207 202.902 102.311 C 206.606 103.415 210.02 104.588 212.508 105.486 C 213.752 105.934 214.764 106.314 215.465 106.581 C 215.815 106.714 216.088 106.82 216.272 106.892 C 216.365 106.928 216.435 106.955 216.482 106.974 C 216.506 106.983 216.523 106.99 216.535 106.995 C 216.541 106.997 216.546 106.999 216.548 107 C 216.55 107.001 216.551 107.001 216.552 107.001 C 216.552 107.002 216.552 107.002 216.552 107.002 C 216.553 107.002 216.553 107.002 216.737 106.537 Z M 182.34 98.776 C 182.796 98.57 182.795 98.57 182.795 98.569 C 182.795 98.568 182.794 98.567 182.794 98.566 C 182.793 98.564 182.791 98.56 182.789 98.556 C 182.785 98.547 182.779 98.534 182.771 98.517 C 182.755 98.483 182.732 98.433 182.701 98.369 C 182.639 98.239 182.547 98.05 182.423 97.806 C 182.175 97.319 181.802 96.614 181.297 95.738 C 180.288 93.988 178.752 91.553 176.64 88.809 C 172.418 83.323 165.887 76.587 156.657 71.611 C 138.152 61.634 108.963 58.812 66.102 86.843 L 66.375 87.262 L 66.649 87.68 C 109.287 59.796 138.08 62.731 156.183 72.491 C 165.256 77.383 171.685 84.01 175.848 89.419 C 177.928 92.123 179.44 94.519 180.431 96.238 C 180.926 97.097 181.291 97.786 181.531 98.259 C 181.651 98.496 181.74 98.678 181.799 98.8 C 181.828 98.862 181.85 98.908 181.864 98.938 C 181.871 98.954 181.877 98.965 181.88 98.972 C 181.882 98.976 181.883 98.979 181.884 98.98 C 181.884 98.981 181.884 98.982 181.884 98.982 C 181.884 98.982 181.884 98.982 182.34 98.776 Z M 66.375 87.262 C 65.944 87.515 65.944 87.515 65.945 87.516 C 65.945 87.516 65.945 87.516 65.945 87.517 C 65.946 87.518 65.947 87.52 65.948 87.522 C 65.951 87.526 65.954 87.532 65.959 87.54 C 65.968 87.555 65.982 87.578 65.999 87.607 C 66.035 87.666 66.088 87.752 66.158 87.864 C 66.299 88.087 66.508 88.413 66.788 88.826 C 67.347 89.652 68.187 90.828 69.311 92.237 C 71.56 95.053 74.951 98.801 79.525 102.533 C 88.676 109.999 102.572 117.405 121.521 117.151 L 121.514 116.651 L 121.508 116.151 C 102.847 116.401 89.173 109.113 80.157 101.758 C 75.648 98.08 72.306 94.386 70.093 91.613 C 68.986 90.227 68.162 89.072 67.616 88.265 C 67.343 87.862 67.14 87.546 67.005 87.331 C 66.937 87.224 66.887 87.143 66.854 87.088 C 66.838 87.061 66.826 87.041 66.818 87.027 C 66.814 87.021 66.811 87.016 66.809 87.013 C 66.808 87.011 66.807 87.01 66.807 87.01 C 66.807 87.009 66.807 87.009 66.807 87.009 C 66.807 87.009 66.807 87.009 66.375 87.262 Z M 121.514 116.651 L 121.521 117.151 C 140.408 116.898 153.445 112.27 161.772 107.686 C 165.933 105.395 168.915 103.118 170.861 101.407 C 171.833 100.552 172.547 99.839 173.019 99.337 C 173.255 99.086 173.431 98.888 173.549 98.751 C 173.608 98.683 173.652 98.63 173.683 98.593 C 173.698 98.575 173.709 98.561 173.717 98.551 C 173.721 98.546 173.725 98.542 173.727 98.539 C 173.728 98.538 173.729 98.537 173.73 98.536 C 173.73 98.535 173.73 98.535 173.73 98.535 C 173.731 98.534 173.731 98.534 173.339 98.223 C 172.947 97.913 172.948 97.913 172.948 97.912 C 172.948 97.913 172.948 97.912 172.948 97.913 C 172.947 97.913 172.947 97.913 172.946 97.914 C 172.945 97.916 172.943 97.918 172.94 97.922 C 172.934 97.929 172.925 97.941 172.912 97.956 C 172.886 97.988 172.846 98.035 172.792 98.098 C 172.683 98.224 172.517 98.412 172.291 98.652 C 171.839 99.132 171.148 99.823 170.2 100.656 C 168.305 102.323 165.382 104.557 161.289 106.81 C 153.106 111.315 140.23 115.9 121.508 116.151 L 121.514 116.651 Z M 173.339 98.223 C 173.352 97.724 173.352 97.724 173.351 97.724 C 173.351 97.724 173.35 97.724 173.349 97.724 C 173.347 97.723 173.343 97.723 173.339 97.723 C 173.331 97.723 173.318 97.723 173.301 97.722 C 173.267 97.721 173.216 97.72 173.149 97.718 C 173.015 97.715 172.816 97.709 172.556 97.701 C 172.036 97.686 171.272 97.663 170.297 97.63 C 168.348 97.564 165.556 97.46 162.187 97.307 C 155.448 97.002 146.401 96.504 137.166 95.731 C 127.928 94.958 118.516 93.911 111.04 92.51 C 107.3 91.809 104.061 91.022 101.577 90.143 C 100.335 89.704 99.294 89.245 98.477 88.769 C 97.656 88.291 97.094 87.812 96.774 87.348 L 96.362 87.631 L 95.95 87.915 C 96.388 88.551 97.09 89.119 97.974 89.633 C 98.862 90.151 99.966 90.634 101.244 91.086 C 103.798 91.99 107.094 92.788 110.855 93.493 C 118.381 94.903 127.834 95.954 137.083 96.728 C 146.334 97.502 155.395 98.001 162.142 98.306 C 165.515 98.459 168.311 98.563 170.263 98.629 C 171.24 98.662 172.005 98.686 172.527 98.701 C 172.787 98.709 172.987 98.714 173.122 98.718 C 173.189 98.72 173.24 98.721 173.275 98.722 C 173.292 98.722 173.305 98.723 173.313 98.723 C 173.318 98.723 173.321 98.723 173.323 98.723 C 173.324 98.723 173.325 98.723 173.326 98.723 C 173.326 98.723 173.327 98.723 173.339 98.223 Z M 254.177 104.211 C 254.584 103.921 254.584 103.921 254.584 103.92 C 254.584 103.92 254.583 103.92 254.583 103.919 C 254.582 103.918 254.581 103.917 254.58 103.915 C 254.577 103.911 254.573 103.905 254.567 103.897 C 254.555 103.881 254.538 103.857 254.516 103.825 C 254.471 103.762 254.404 103.669 254.316 103.546 C 254.142 103.302 253.885 102.943 253.556 102.484 C 252.899 101.567 251.957 100.251 250.814 98.66 C 248.528 95.476 245.44 91.186 242.232 86.76 C 235.828 77.926 228.912 68.507 226.971 66.32 L 226.597 66.652 L 226.223 66.983 C 228.122 69.123 234.996 78.483 241.422 87.347 C 244.629 91.771 247.716 96.06 250.002 99.243 C 251.144 100.834 252.087 102.149 252.743 103.066 C 253.071 103.525 253.328 103.884 253.503 104.128 C 253.59 104.25 253.657 104.344 253.702 104.407 C 253.725 104.438 253.742 104.462 253.753 104.478 C 253.759 104.486 253.763 104.492 253.766 104.496 C 253.768 104.498 253.769 104.5 253.769 104.501 C 253.77 104.501 253.77 104.501 253.77 104.502 C 253.77 104.502 253.77 104.502 254.177 104.211 Z M 226.597 66.652 L 226.97 66.319 C 226.215 65.47 224.826 65.155 223.442 65.264 C 222.03 65.376 220.477 65.934 219.282 67.017 C 218.073 68.112 217.25 69.724 217.3 71.877 C 217.349 74.013 218.254 76.644 220.412 79.816 L 220.825 79.535 L 221.239 79.254 C 219.144 76.174 218.343 73.73 218.3 71.854 C 218.257 69.996 218.957 68.661 219.953 67.759 C 220.962 66.845 222.296 66.358 223.521 66.261 C 224.774 66.162 225.773 66.477 226.223 66.984 L 226.597 66.652 Z M 220.825 79.535 L 220.412 79.816 C 225.264 86.947 232.244 89.117 237.968 89.51 C 240.829 89.706 243.385 89.459 245.226 89.164 C 246.147 89.017 246.89 88.857 247.406 88.733 C 247.663 88.671 247.864 88.618 248.001 88.581 C 248.07 88.562 248.123 88.547 248.159 88.536 C 248.177 88.531 248.191 88.527 248.201 88.524 C 248.206 88.523 248.209 88.522 248.212 88.521 C 248.213 88.52 248.214 88.52 248.215 88.52 C 248.216 88.52 248.216 88.52 248.216 88.52 C 248.217 88.519 248.217 88.519 248.071 88.041 C 247.925 87.563 247.925 87.563 247.925 87.563 C 247.925 87.563 247.925 87.563 247.925 87.563 C 247.925 87.563 247.924 87.563 247.923 87.563 C 247.922 87.564 247.919 87.565 247.915 87.566 C 247.908 87.568 247.896 87.571 247.881 87.576 C 247.849 87.585 247.801 87.599 247.737 87.616 C 247.609 87.651 247.419 87.701 247.172 87.761 C 246.679 87.879 245.96 88.034 245.068 88.177 C 243.281 88.463 240.803 88.702 238.036 88.512 C 232.507 88.133 225.864 86.05 221.239 79.254 L 220.825 79.535 Z M 244.492 133.958 C 244.394 133.468 244.394 133.468 244.393 133.468 C 244.393 133.468 244.392 133.468 244.391 133.468 C 244.389 133.469 244.387 133.469 244.383 133.47 C 244.376 133.472 244.365 133.474 244.351 133.476 C 244.323 133.482 244.281 133.491 244.226 133.502 C 244.116 133.524 243.952 133.558 243.738 133.602 C 243.311 133.691 242.683 133.823 241.88 133.998 C 240.275 134.347 237.97 134.864 235.17 135.54 C 229.569 136.89 221.982 138.871 214.042 141.395 C 206.105 143.918 197.801 146.987 190.772 150.515 C 183.762 154.033 177.94 158.045 175.056 162.489 L 175.475 162.761 L 175.895 163.033 C 178.625 158.827 184.237 154.913 191.22 151.409 C 198.184 147.914 206.432 144.863 214.345 142.348 C 222.256 139.834 229.818 137.859 235.404 136.512 C 238.196 135.838 240.494 135.322 242.093 134.975 C 242.892 134.801 243.517 134.669 243.942 134.581 C 244.154 134.537 244.316 134.504 244.425 134.482 C 244.48 134.471 244.521 134.462 244.548 134.457 C 244.562 134.454 244.572 134.452 244.579 134.451 C 244.583 134.45 244.585 134.449 244.587 134.449 C 244.588 134.449 244.588 134.449 244.589 134.449 C 244.589 134.449 244.589 134.449 244.492 133.958 Z M 200.489 130.095 C 200.479 130.595 200.479 130.595 200.479 130.595 C 200.479 130.595 200.479 130.595 200.48 130.595 C 200.48 130.595 200.481 130.595 200.482 130.595 C 200.485 130.595 200.489 130.595 200.494 130.595 C 200.505 130.596 200.522 130.596 200.543 130.597 C 200.587 130.598 200.653 130.6 200.74 130.603 C 200.914 130.61 201.172 130.621 201.505 130.64 C 202.17 130.678 203.135 130.745 204.327 130.865 C 206.712 131.105 210.005 131.554 213.633 132.39 C 220.911 134.066 229.449 137.278 234.779 143.39 L 235.156 143.061 L 235.532 142.732 C 229.99 136.377 221.195 133.106 213.858 131.416 C 210.179 130.568 206.843 130.113 204.427 129.87 C 203.219 129.749 202.24 129.68 201.561 129.642 C 201.222 129.623 200.958 129.611 200.778 129.604 C 200.688 129.601 200.619 129.599 200.573 129.597 C 200.549 129.597 200.531 129.596 200.519 129.596 C 200.513 129.596 200.509 129.595 200.505 129.595 C 200.504 129.595 200.502 129.595 200.502 129.595 C 200.501 129.595 200.501 129.595 200.5 129.595 C 200.5 129.595 200.5 129.595 200.489 130.095 Z M 318.099 70.76 C 317.986 71.247 317.986 71.247 317.987 71.247 C 317.987 71.247 317.987 71.248 317.987 71.248 C 317.988 71.248 317.989 71.248 317.99 71.248 C 317.991 71.249 317.994 71.249 317.998 71.25 C 318.005 71.252 318.015 71.254 318.029 71.257 C 318.056 71.263 318.096 71.272 318.149 71.284 C 318.254 71.306 318.408 71.34 318.609 71.381 C 319.011 71.463 319.597 71.578 320.338 71.707 C 321.819 71.965 323.921 72.284 326.407 72.523 C 331.373 73.001 337.898 73.167 344.078 71.899 L 343.978 71.41 L 343.877 70.92 C 337.835 72.16 331.421 72.001 326.503 71.528 C 324.047 71.291 321.971 70.977 320.51 70.722 C 319.779 70.594 319.203 70.482 318.81 70.401 C 318.614 70.361 318.463 70.329 318.362 70.307 C 318.312 70.296 318.273 70.287 318.248 70.281 C 318.236 70.279 318.226 70.276 318.22 70.275 C 318.217 70.274 318.215 70.274 318.213 70.273 C 318.213 70.273 318.212 70.273 318.212 70.273 C 318.212 70.273 318.212 70.273 318.212 70.273 C 318.211 70.273 318.212 70.273 318.099 70.76 Z M 343.978 71.41 L 344.078 71.899 C 350.189 70.646 353.245 70.019 354.773 69.705 C 355.536 69.549 355.918 69.47 356.109 69.431 C 356.205 69.412 356.253 69.402 356.276 69.397 C 356.288 69.394 356.294 69.393 356.297 69.393 C 356.299 69.392 356.3 69.392 356.3 69.392 C 356.3 69.392 356.3 69.392 356.3 69.392 C 356.3 69.392 356.3 69.392 356.3 69.392 C 356.3 69.392 356.3 69.392 356.301 69.392 C 356.301 69.392 356.301 69.392 356.301 69.392 C 356.645 69.131 356.657 68.699 356.2 68.902 C 355.743 69.105 355.755 68.674 356.099 68.412 C 356.099 68.412 356.099 68.412 356.099 68.412 C 356.099 68.412 356.099 68.412 356.099 68.412 C 356.099 68.412 356.099 68.412 356.099 68.412 C 356.099 68.412 356.099 68.412 356.099 68.412 C 356.099 68.413 356.098 68.413 356.096 68.413 C 356.093 68.414 356.087 68.415 356.075 68.417 C 356.052 68.422 356.004 68.432 355.908 68.452 C 355.717 68.491 355.335 68.569 354.572 68.726 C 353.044 69.039 349.988 69.666 343.877 70.92 L 343.978 71.41 Z M 380.684 48.483 C 381.084 48.183 381.084 48.183 381.084 48.183 C 381.083 48.182 381.083 48.182 381.083 48.181 C 381.082 48.18 381.081 48.179 381.079 48.177 C 381.076 48.173 381.072 48.167 381.066 48.159 C 381.054 48.143 381.036 48.12 381.013 48.09 C 380.967 48.03 380.899 47.941 380.809 47.825 C 380.63 47.593 380.364 47.254 380.019 46.823 C 379.328 45.961 378.318 44.733 377.038 43.263 C 374.478 40.323 370.836 36.413 366.506 32.533 C 362.178 28.655 357.153 24.797 351.827 21.972 C 346.503 19.149 340.848 17.34 335.27 17.605 L 335.294 18.104 L 335.318 18.604 C 340.652 18.351 346.125 20.08 351.358 22.856 C 356.589 25.63 361.547 29.432 365.839 33.278 C 370.129 37.122 373.742 41.001 376.284 43.919 C 377.554 45.378 378.555 46.596 379.239 47.448 C 379.58 47.874 379.842 48.209 380.019 48.437 C 380.107 48.551 380.173 48.638 380.218 48.696 C 380.24 48.725 380.257 48.747 380.268 48.762 C 380.273 48.769 380.278 48.775 380.28 48.778 C 380.282 48.78 380.283 48.781 380.283 48.782 C 380.284 48.783 380.284 48.783 380.284 48.783 C 380.284 48.783 380.284 48.783 380.684 48.483 Z M 400.382 65.007 C 399.891 64.911 399.891 64.912 399.891 64.912 C 399.891 64.912 399.891 64.913 399.891 64.913 C 399.891 64.914 399.89 64.915 399.89 64.917 C 399.889 64.921 399.888 64.926 399.887 64.933 C 399.884 64.947 399.88 64.968 399.875 64.995 C 399.865 65.049 399.849 65.13 399.83 65.236 C 399.79 65.448 399.733 65.76 399.663 66.165 C 399.521 66.975 399.324 68.155 399.102 69.634 C 398.658 72.592 398.112 76.751 397.707 81.56 C 396.899 91.166 396.647 103.403 398.908 113.823 L 399.397 113.717 L 399.885 113.611 C 397.656 103.337 397.898 91.218 398.704 81.644 C 399.107 76.861 399.649 72.724 400.091 69.782 C 400.312 68.312 400.507 67.141 400.648 66.338 C 400.718 65.936 400.774 65.627 400.813 65.418 C 400.832 65.314 400.847 65.235 400.857 65.182 C 400.862 65.156 400.866 65.136 400.869 65.122 C 400.87 65.116 400.871 65.111 400.872 65.108 C 400.872 65.106 400.872 65.105 400.872 65.104 C 400.872 65.104 400.872 65.104 400.872 65.103 C 400.872 65.103 400.872 65.103 400.382 65.007 Z M 399.397 113.717 L 398.908 113.823 C 400.024 118.967 400.112 122.563 399.621 124.863 C 399.128 127.175 398.107 128.007 397.106 128.056 C 396.02 128.109 394.607 127.286 393.279 125.499 C 391.971 123.741 390.828 121.148 390.263 117.924 L 389.771 118.01 L 389.278 118.096 C 389.865 121.448 391.061 124.193 392.476 126.096 C 393.87 127.971 395.561 129.132 397.155 129.055 C 398.834 128.973 400.068 127.559 400.599 125.072 C 401.133 122.571 401.014 118.814 399.885 113.611 L 399.397 113.717 Z M 389.771 118.01 L 390.263 117.924 C 389.151 111.566 392.184 106.208 395.571 102.395 C 397.26 100.494 399.023 98.994 400.364 97.97 C 401.034 97.458 401.597 97.066 401.992 96.803 C 402.189 96.671 402.344 96.572 402.449 96.506 C 402.501 96.473 402.541 96.448 402.568 96.432 C 402.581 96.424 402.591 96.418 402.597 96.414 C 402.6 96.412 402.603 96.411 402.604 96.41 C 402.605 96.409 402.605 96.409 402.605 96.409 C 402.606 96.409 402.606 96.409 402.606 96.409 C 402.606 96.409 402.605 96.409 402.349 95.98 C 402.093 95.55 402.093 95.55 402.093 95.55 C 402.092 95.551 402.092 95.551 402.092 95.551 C 402.091 95.551 402.09 95.552 402.089 95.553 C 402.087 95.554 402.084 95.556 402.08 95.558 C 402.072 95.563 402.06 95.57 402.045 95.579 C 402.016 95.597 401.972 95.624 401.916 95.659 C 401.804 95.73 401.642 95.834 401.437 95.971 C 401.027 96.244 400.446 96.649 399.757 97.175 C 398.38 98.227 396.566 99.769 394.823 101.731 C 391.346 105.646 388.09 111.303 389.278 118.096 L 389.771 118.01 Z M 388.945 66.488 C 388.762 66.953 388.762 66.953 388.762 66.953 C 388.762 66.953 388.762 66.953 388.762 66.953 C 388.762 66.953 388.763 66.953 388.763 66.953 C 388.765 66.954 388.766 66.954 388.769 66.956 C 388.774 66.958 388.782 66.961 388.793 66.965 C 388.815 66.974 388.849 66.988 388.893 67.006 C 388.981 67.043 389.113 67.099 389.282 67.174 C 389.621 67.324 390.11 67.55 390.71 67.853 C 391.909 68.459 393.545 69.371 395.286 70.594 C 398.78 73.046 402.646 76.708 404.332 81.604 L 404.805 81.441 L 405.278 81.278 C 403.492 76.094 399.429 72.28 395.861 69.775 C 394.071 68.519 392.392 67.583 391.161 66.96 C 390.545 66.649 390.039 66.415 389.687 66.259 C 389.51 66.181 389.372 66.123 389.278 66.083 C 389.23 66.063 389.194 66.049 389.169 66.038 C 389.156 66.033 389.146 66.029 389.14 66.027 C 389.136 66.025 389.134 66.024 389.132 66.024 C 389.131 66.023 389.13 66.023 389.129 66.023 C 389.129 66.023 389.129 66.022 389.129 66.022 C 389.129 66.022 389.128 66.022 388.945 66.488 Z M 296.824 207.315 C 297.318 207.388 297.318 207.388 297.318 207.388 C 297.318 207.388 297.318 207.388 297.318 207.387 C 297.318 207.387 297.319 207.386 297.319 207.384 C 297.319 207.38 297.32 207.375 297.321 207.368 C 297.324 207.353 297.327 207.33 297.332 207.299 C 297.343 207.238 297.358 207.146 297.381 207.024 C 297.426 206.78 297.497 206.42 297.602 205.956 C 297.813 205.028 298.158 203.69 298.695 202.055 C 299.77 198.786 301.614 194.338 304.685 189.631 C 310.822 180.226 321.871 169.768 341.551 165.62 L 341.448 165.13 L 341.344 164.641 C 321.373 168.851 310.11 179.486 303.848 189.084 C 300.72 193.878 298.842 198.409 297.745 201.743 C 297.197 203.41 296.844 204.78 296.627 205.735 C 296.519 206.212 296.445 206.586 296.397 206.842 C 296.374 206.97 296.357 207.069 296.346 207.136 C 296.34 207.17 296.336 207.196 296.333 207.213 C 296.332 207.222 296.331 207.229 296.33 207.234 C 296.33 207.236 296.33 207.238 296.329 207.24 C 296.329 207.24 296.329 207.241 296.329 207.241 C 296.329 207.242 296.329 207.242 296.824 207.315 Z M 341.448 165.13 L 341.551 165.62 C 358.343 162.083 371.056 170.688 378.919 182.587 C 382.852 188.538 385.558 195.297 386.935 201.733 C 388.314 208.175 388.352 214.252 386.993 218.851 L 387.473 218.993 L 387.952 219.135 C 389.374 214.324 389.313 208.067 387.913 201.523 C 386.511 194.973 383.759 188.096 379.754 182.035 C 371.742 169.912 358.661 160.994 341.345 164.641 L 341.448 165.13 Z M 387.473 218.993 L 386.993 218.851 C 385.346 224.429 382.016 233.908 373.721 242.33 C 365.436 250.743 352.157 258.144 330.533 259.494 L 330.564 259.993 L 330.595 260.492 C 352.44 259.128 365.959 251.637 374.434 243.032 C 382.898 234.436 386.288 224.772 387.952 219.134 L 387.473 218.993 Z M 108.178 80.626 C 108.123 81.123 108.123 81.123 108.123 81.123 C 108.123 81.123 108.123 81.123 108.123 81.123 C 108.124 81.123 108.124 81.123 108.125 81.124 C 108.128 81.124 108.131 81.124 108.136 81.125 C 108.146 81.126 108.162 81.128 108.183 81.13 C 108.224 81.136 108.287 81.143 108.369 81.155 C 108.534 81.177 108.778 81.212 109.093 81.263 C 109.723 81.365 110.634 81.53 111.754 81.784 C 113.993 82.291 117.06 83.149 120.368 84.552 C 126.994 87.361 134.531 92.327 138.391 100.974 L 138.847 100.77 L 139.304 100.566 C 135.3 91.595 127.502 86.49 120.759 83.631 C 117.383 82.2 114.257 81.326 111.974 80.809 C 110.833 80.55 109.901 80.381 109.253 80.276 C 108.929 80.223 108.676 80.187 108.503 80.164 C 108.416 80.152 108.35 80.143 108.304 80.138 C 108.282 80.135 108.264 80.133 108.252 80.132 C 108.246 80.131 108.242 80.13 108.238 80.13 C 108.237 80.13 108.236 80.13 108.235 80.13 C 108.234 80.13 108.234 80.129 108.233 80.129 C 108.233 80.129 108.233 80.129 108.178 80.626 Z M 368.255 26.631 C 367.995 26.204 367.995 26.204 367.995 26.204 C 367.995 26.204 367.995 26.204 367.995 26.204 C 367.995 26.204 367.994 26.204 367.993 26.205 C 367.992 26.206 367.989 26.208 367.985 26.21 C 367.978 26.214 367.966 26.221 367.951 26.231 C 367.919 26.249 367.872 26.277 367.81 26.313 C 367.684 26.385 367.498 26.491 367.255 26.624 C 366.768 26.89 366.056 27.262 365.158 27.686 C 363.36 28.536 360.823 29.591 357.863 30.414 C 351.931 32.065 344.384 32.766 337.691 29.124 L 337.452 29.564 L 337.213 30.003 C 344.237 33.824 352.091 33.059 358.132 31.378 C 361.158 30.535 363.75 29.457 365.585 28.591 C 366.503 28.157 367.232 27.776 367.734 27.502 C 367.985 27.365 368.178 27.255 368.31 27.179 C 368.376 27.14 368.427 27.111 368.461 27.09 C 368.478 27.08 368.491 27.072 368.5 27.067 C 368.505 27.064 368.508 27.062 368.511 27.061 C 368.512 27.06 368.513 27.059 368.514 27.059 C 368.514 27.059 368.514 27.058 368.515 27.058 C 368.515 27.058 368.515 27.058 368.255 26.631 Z" fill="currentColor" fill-rule="nonzero"></path>
</svg>