<svg xmlns="http://www.w3.org/2000/svg" width="81.662" height="77.889" viewBox="0 0 81.662 77.889" fill="none">
  <path d="M 63.542 77.889 C 62.88 77.887 62.229 77.725 61.644 77.415 L 40.831 66.472 L 20.018 77.415 C 19.344 77.768 18.585 77.926 17.826 77.871 C 17.068 77.816 16.339 77.549 15.724 77.102 C 15.108 76.655 14.63 76.045 14.342 75.341 C 14.055 74.636 13.97 73.866 14.097 73.116 L 18.07 49.939 L 1.231 33.524 C 0.686 32.992 0.301 32.318 0.119 31.579 C -0.064 30.84 -0.035 30.064 0.2 29.34 C 0.435 28.616 0.868 27.972 1.45 27.481 C 2.032 26.99 2.74 26.672 3.493 26.561 L 26.764 23.18 L 37.172 2.094 C 37.547 1.456 38.082 0.928 38.724 0.561 C 39.366 0.193 40.093 0 40.833 0 C 41.573 0 42.3 0.193 42.942 0.561 C 43.584 0.928 44.119 1.456 44.494 2.094 L 54.898 23.18 L 78.169 26.561 C 78.922 26.672 79.63 26.99 80.212 27.481 C 80.794 27.972 81.227 28.616 81.462 29.34 C 81.697 30.064 81.725 30.84 81.543 31.579 C 81.361 32.318 80.976 32.992 80.431 33.524 L 63.591 49.939 L 67.569 73.116 C 67.669 73.701 67.64 74.302 67.485 74.876 C 67.329 75.449 67.05 75.982 66.667 76.437 C 66.284 76.891 65.806 77.257 65.267 77.508 C 64.728 77.758 64.137 77.889 63.542 77.889 Z" fill="currentColor" fill-rule="nonzero"></path>
</svg>