<svg xmlns="http://www.w3.org/2000/svg" width="293" height="315.405" viewBox="0 0 293 315.405" fill="none">
  <path d="M 264.756 51.641 L 264.333 51.908 L 264.333 51.908 L 264.756 51.641 Z M 101.926 73.066 L 102.382 73.273 L 102.382 73.273 L 101.926 73.066 Z M 104.113 200.707 L 104.546 200.455 L 104.546 200.455 L 104.113 200.707 Z M 195.597 259.652 L 195.574 259.153 L 195.574 259.153 L 195.597 259.652 Z M 290.824 162.944 L 291.316 163.034 L 291.316 163.034 L 290.824 162.944 Z M 223.944 110.974 L 224.159 110.522 L 224.158 110.522 L 223.944 110.974 Z M 223.944 124.916 L 223.786 124.442 L 223.785 124.442 L 223.944 124.916 Z M 213.895 117.941 L 213.409 117.823 L 213.409 117.824 L 213.895 117.941 Z M 129.17 84.194 L 129.63 83.998 L 129.63 83.998 L 129.17 84.194 Z M 135.409 76.381 L 135.107 76.779 L 135.107 76.779 L 135.409 76.381 Z M 139.061 88.444 L 139.317 88.873 L 139.317 88.873 L 139.061 88.444 Z M 219.136 151.18 L 218.669 151.358 L 218.669 151.358 L 219.136 151.18 Z M 209.416 146.382 L 209.649 146.824 L 209.65 146.824 L 209.416 146.382 Z M 31.499 60.431 L 31.988 60.539 L 31.988 60.539 L 31.499 60.431 Z M 45.239 145.285 L 44.849 145.598 L 44.85 145.598 L 45.239 145.285 Z M 65.265 60.544 L 65.437 60.074 L 65.435 60.074 L 65.265 60.544 Z M 51.374 77.824 L 51.549 77.356 L 51.547 77.355 L 51.374 77.824 Z M 48.031 52.609 L 48.116 53.101 L 48.118 53.101 L 48.031 52.609 Z M 46.316 59.826 L 46.247 60.321 L 46.248 60.321 L 46.316 59.826 Z M 79.937 261.507 L 79.461 261.354 L 79.461 261.354 L 79.937 261.507 Z M 91.497 315.405 L 91.099 315.708 L 92.058 316.968 L 91.996 315.385 L 91.497 315.405 Z M 102.288 223.164 L 102.516 223.609 L 102.516 223.609 L 102.288 223.164 Z M 108.547 233.744 L 108.896 234.101 L 108.896 234.101 L 108.547 233.744 Z M 0 231.736 L -0.486 231.618 L -0.78 232.827 L 0.269 232.157 L 0 231.736 Z M 24.17 232.091 L 24.312 231.611 L 24.312 231.611 L 24.17 232.091 Z M 57.659 243.178 L 57.633 243.678 L 57.633 243.678 L 57.659 243.178 Z M 102.143 287.238 L 102.456 287.629 L 102.456 287.629 L 102.143 287.238 Z M 150.995 50.182 L 151.461 50.361 L 151.462 50.361 L 150.995 50.182 Z M 185.161 131.488 L 184.752 131.199 L 184.752 131.199 L 185.161 131.488 Z M 142.667 216.391 L 142.791 216.875 L 142.791 216.875 L 142.667 216.391 Z M 161.799 228.825 L 162.263 228.64 L 162.263 228.639 L 161.799 228.825 Z M 224.298 225.414 L 224.789 225.513 L 224.789 225.513 L 224.298 225.414 Z M 241.368 213.641 L 241.427 214.137 L 241.427 214.137 L 241.368 213.641 Z M 197.613 140.076 L 198.106 140.161 L 198.106 140.161 L 197.613 140.076 Z M 264.756 51.641 L 265.179 51.375 C 251.007 28.876 218.691 8.726 179.608 14.117 L 179.677 14.613 L 179.745 15.108 C 218.412 9.774 250.356 29.718 264.333 51.908 L 264.756 51.641 Z M 179.677 14.613 L 179.608 14.117 C 160.102 16.808 144.399 23.002 131.65 32.784 C 118.902 42.565 109.138 55.911 101.471 72.86 L 101.926 73.066 L 102.382 73.273 C 109.998 56.435 119.671 43.235 132.259 33.577 C 144.846 23.92 160.376 17.78 179.745 15.108 L 179.677 14.613 Z M 101.926 73.066 L 101.471 72.86 C 93.782 89.852 90.505 115.278 91.053 139.713 C 91.6 164.139 95.971 187.706 103.681 200.958 L 104.113 200.707 L 104.546 200.455 C 96.966 187.427 92.599 164.069 92.052 139.691 C 91.506 115.323 94.781 90.068 102.382 73.273 L 101.926 73.066 Z M 104.113 200.707 L 103.681 200.958 C 118.98 227.272 145.028 262.456 195.62 260.152 L 195.597 259.652 L 195.574 259.153 C 145.586 261.429 119.814 226.717 104.546 200.455 L 104.113 200.707 Z M 195.597 259.652 L 195.62 260.152 C 244.303 257.937 281.14 218.977 291.316 163.034 L 290.824 162.944 L 290.332 162.855 C 280.214 218.481 243.662 256.965 195.574 259.153 L 195.597 259.652 Z M 290.824 162.944 L 291.316 163.034 C 300.362 113.3 279.279 73.756 265.179 51.375 L 264.756 51.641 L 264.333 51.908 C 278.397 74.232 299.309 113.502 290.332 162.855 L 290.824 162.944 Z M 223.944 110.974 L 223.729 111.425 C 224.508 111.796 225.212 112.663 225.741 113.878 C 226.264 115.08 226.587 116.555 226.651 118.033 C 226.715 119.513 226.519 120.961 226.037 122.119 C 225.556 123.273 224.811 124.1 223.786 124.442 L 223.944 124.916 L 224.102 125.39 C 225.481 124.93 226.405 123.836 226.96 122.504 C 227.514 121.175 227.719 119.572 227.65 117.99 C 227.581 116.405 227.236 114.807 226.658 113.479 C 226.085 112.163 225.251 111.042 224.159 110.522 L 223.944 110.974 Z M 223.944 124.916 L 223.785 124.442 C 221.547 125.193 218.902 124.697 216.954 123.426 C 215.007 122.156 213.866 120.199 214.381 118.058 L 213.895 117.941 L 213.409 117.824 C 212.762 120.513 214.241 122.85 216.407 124.263 C 218.572 125.675 221.533 126.252 224.103 125.39 L 223.944 124.916 Z M 213.895 117.941 L 214.381 118.059 C 214.943 115.742 216.272 113.568 217.973 112.239 C 219.661 110.921 221.681 110.452 223.729 111.426 L 223.944 110.974 L 224.158 110.522 C 221.695 109.351 219.274 109.955 217.358 111.451 C 215.456 112.936 214.017 115.317 213.409 117.823 L 213.895 117.941 Z M 129.17 84.194 L 129.63 83.998 C 128.852 82.179 129.357 79.658 130.568 77.935 C 131.168 77.082 131.903 76.48 132.669 76.246 C 133.41 76.02 134.237 76.119 135.107 76.779 L 135.409 76.381 L 135.711 75.982 C 134.604 75.142 133.447 74.963 132.377 75.29 C 131.333 75.608 130.432 76.39 129.75 77.36 C 128.398 79.284 127.761 82.17 128.71 84.391 L 129.17 84.194 Z M 135.409 76.381 L 135.107 76.779 C 136.991 78.206 138.587 80.688 139.348 83.032 C 139.728 84.202 139.887 85.3 139.792 86.186 C 139.697 87.068 139.361 87.682 138.805 88.015 L 139.061 88.444 L 139.317 88.873 C 140.232 88.327 140.67 87.368 140.786 86.293 C 140.901 85.221 140.705 83.975 140.299 82.724 C 139.489 80.226 137.788 77.555 135.711 75.982 L 135.409 76.381 Z M 139.061 88.444 L 138.805 88.014 C 136.146 89.599 131.607 88.624 129.63 83.998 L 129.17 84.194 L 128.71 84.391 C 130.897 89.506 136.078 90.804 139.317 88.873 L 139.061 88.444 Z M 219.136 151.18 L 218.669 151.358 C 219.38 153.22 218.781 155.706 217.511 157.355 C 216.882 158.171 216.128 158.729 215.356 158.919 C 214.61 159.102 213.785 158.958 212.935 158.247 L 212.614 158.63 L 212.293 159.014 C 213.365 159.911 214.513 160.156 215.595 159.89 C 216.653 159.629 217.585 158.897 218.303 157.965 C 219.728 156.116 220.469 153.268 219.603 151.001 L 219.136 151.18 Z M 212.614 158.63 L 212.935 158.247 C 211.105 156.715 209.601 154.144 208.927 151.759 C 208.591 150.569 208.473 149.464 208.601 148.585 C 208.728 147.711 209.085 147.121 209.649 146.824 L 209.416 146.382 L 209.182 145.939 C 208.242 146.436 207.767 147.373 207.611 148.441 C 207.457 149.506 207.606 150.76 207.965 152.031 C 208.682 154.57 210.281 157.329 212.293 159.014 L 212.614 158.63 Z M 209.416 146.382 L 209.65 146.824 C 212.348 145.396 216.862 146.621 218.669 151.358 L 219.136 151.18 L 219.603 151.001 C 217.614 145.787 212.487 144.19 209.182 145.94 L 209.416 146.382 Z M 142.207 26.458 C 142.629 26.19 142.628 26.189 142.628 26.189 C 142.628 26.189 142.628 26.188 142.627 26.188 C 142.627 26.187 142.626 26.185 142.625 26.183 C 142.622 26.179 142.619 26.174 142.614 26.167 C 142.605 26.152 142.591 26.131 142.573 26.104 C 142.537 26.049 142.484 25.969 142.414 25.865 C 142.274 25.657 142.065 25.353 141.79 24.968 C 141.239 24.198 140.422 23.102 139.349 21.793 C 137.204 19.176 134.038 15.703 129.948 12.28 C 121.773 5.437 109.872 -1.241 95.055 -0.433 L 95.083 0.066 L 95.11 0.565 C 109.58 -0.224 121.24 6.294 129.306 13.047 C 133.337 16.421 136.46 19.846 138.575 22.427 C 139.633 23.717 140.437 24.795 140.977 25.55 C 141.246 25.927 141.449 26.223 141.585 26.424 C 141.652 26.524 141.703 26.601 141.737 26.652 C 141.753 26.678 141.766 26.697 141.774 26.709 C 141.778 26.716 141.781 26.72 141.783 26.723 C 141.784 26.725 141.785 26.726 141.785 26.726 C 141.785 26.727 141.785 26.727 141.785 26.727 C 141.785 26.727 141.785 26.727 142.207 26.458 Z M 95.083 0.066 L 95.055 -0.433 C 65.513 1.177 39.17 23.471 31.011 60.323 L 31.499 60.431 L 31.988 60.539 C 40.064 24.059 66.08 2.148 95.11 0.565 L 95.083 0.066 Z M 31.499 60.431 L 31.011 60.323 C 23.092 96.082 30.395 127.599 44.849 145.598 L 45.239 145.285 L 45.629 144.972 C 31.409 127.265 24.117 96.079 31.988 60.539 L 31.499 60.431 Z M 45.239 145.285 L 44.85 145.598 C 51.897 154.366 62.736 159.13 71.757 161.707 C 76.275 162.997 80.354 163.743 83.305 164.167 C 84.78 164.379 85.975 164.51 86.801 164.589 C 87.215 164.628 87.536 164.654 87.755 164.671 C 87.864 164.679 87.948 164.684 88.005 164.688 C 88.033 164.69 88.055 164.691 88.07 164.692 C 88.077 164.693 88.083 164.693 88.087 164.693 C 88.089 164.693 88.09 164.693 88.091 164.693 C 88.092 164.693 88.092 164.694 88.092 164.694 C 88.093 164.694 88.093 164.694 88.121 164.194 C 88.149 163.695 88.149 163.695 88.148 163.695 C 88.148 163.695 88.148 163.695 88.148 163.695 C 88.147 163.695 88.146 163.695 88.144 163.695 C 88.141 163.695 88.136 163.694 88.13 163.694 C 88.117 163.693 88.096 163.692 88.07 163.69 C 88.016 163.687 87.935 163.681 87.829 163.673 C 87.617 163.658 87.302 163.632 86.896 163.594 C 86.083 163.516 84.905 163.387 83.447 163.177 C 80.53 162.758 76.496 162.02 72.031 160.745 C 63.087 158.191 52.485 153.501 45.629 144.972 L 45.239 145.285 Z M 60.464 40.223 L 60.116 40.582 C 60.088 40.555 60.135 40.591 60.182 40.829 C 60.223 41.038 60.252 41.328 60.265 41.7 C 60.291 42.443 60.257 43.445 60.188 44.633 C 60.12 45.819 60.018 47.174 59.912 48.622 C 59.806 50.068 59.697 51.604 59.613 53.143 C 59.446 56.214 59.381 59.326 59.666 61.786 C 59.808 63.014 60.04 64.111 60.408 64.967 C 60.773 65.819 61.307 66.512 62.098 66.789 L 62.263 66.317 L 62.429 65.845 C 62.019 65.701 61.642 65.307 61.327 64.573 C 61.014 63.845 60.796 62.858 60.659 61.671 C 60.385 59.302 60.445 56.262 60.611 53.197 C 60.695 51.669 60.804 50.141 60.909 48.695 C 61.015 47.251 61.118 45.886 61.187 44.691 C 61.256 43.498 61.292 42.457 61.264 41.665 C 61.25 41.27 61.219 40.919 61.163 40.634 C 61.112 40.378 61.022 40.068 60.812 39.864 L 60.464 40.223 Z M 62.263 66.317 L 62.098 66.789 C 63.401 67.246 64.491 67.164 65.332 66.678 C 66.163 66.2 66.668 65.378 66.912 64.516 C 67.157 63.656 67.155 62.708 66.927 61.903 C 66.703 61.111 66.225 60.363 65.437 60.074 L 65.265 60.544 L 65.093 61.013 C 65.46 61.148 65.786 61.543 65.965 62.176 C 66.141 62.797 66.145 63.556 65.95 64.243 C 65.755 64.93 65.377 65.498 64.833 65.812 C 64.301 66.119 63.526 66.231 62.429 65.845 L 62.263 66.317 Z M 65.265 60.544 L 65.435 60.074 C 65.115 59.957 64.795 60.035 64.539 60.155 C 64.278 60.276 64.014 60.471 63.754 60.703 C 63.231 61.17 62.637 61.866 62.006 62.693 C 60.739 64.351 59.254 66.626 57.791 68.882 C 56.322 71.148 54.875 73.394 53.67 75.029 C 53.066 75.849 52.538 76.493 52.11 76.904 C 51.894 77.112 51.726 77.239 51.603 77.304 C 51.471 77.374 51.477 77.329 51.549 77.356 L 51.374 77.824 L 51.198 78.292 C 51.523 78.414 51.841 78.31 52.072 78.187 C 52.313 78.059 52.559 77.86 52.803 77.625 C 53.294 77.153 53.863 76.453 54.475 75.623 C 55.703 73.957 57.169 71.679 58.63 69.426 C 60.099 67.161 61.562 64.922 62.801 63.3 C 63.422 62.487 63.97 61.851 64.42 61.449 C 64.646 61.247 64.827 61.124 64.961 61.061 C 65.099 60.997 65.125 61.025 65.094 61.014 L 65.265 60.544 Z M 51.374 77.824 L 51.547 77.355 C 51.633 77.387 51.594 77.426 51.511 77.221 C 51.44 77.046 51.371 76.779 51.311 76.414 C 51.191 75.688 51.119 74.672 51.076 73.448 C 50.989 70.999 51.02 67.825 50.985 64.658 C 50.951 61.509 50.851 58.372 50.497 56.061 C 50.321 54.913 50.076 53.919 49.716 53.224 C 49.535 52.874 49.307 52.564 49.011 52.355 C 48.7 52.136 48.336 52.047 47.944 52.116 L 48.031 52.609 L 48.118 53.101 C 48.239 53.08 48.335 53.102 48.436 53.173 C 48.552 53.255 48.687 53.412 48.828 53.683 C 49.11 54.229 49.337 55.09 49.509 56.213 C 49.851 58.445 49.951 61.516 49.985 64.669 C 50.02 67.802 49.989 71.021 50.076 73.483 C 50.12 74.715 50.194 75.785 50.325 76.577 C 50.39 76.971 50.473 77.322 50.585 77.598 C 50.685 77.844 50.862 78.168 51.2 78.293 L 51.374 77.824 Z M 48.031 52.609 L 47.945 52.116 C 45.606 52.524 44.424 54.471 44.169 56.281 C 44.041 57.188 44.135 58.109 44.462 58.848 C 44.79 59.592 45.382 60.199 46.247 60.321 L 46.316 59.826 L 46.386 59.331 C 45.963 59.271 45.611 58.975 45.376 58.444 C 45.14 57.908 45.051 57.182 45.159 56.42 C 45.375 54.891 46.337 53.412 48.116 53.101 L 48.031 52.609 Z M 46.316 59.826 L 46.248 60.321 C 46.583 60.367 46.898 60.231 47.15 60.071 C 47.414 59.904 47.687 59.661 47.962 59.373 C 48.516 58.796 49.145 57.969 49.816 56.997 C 51.16 55.048 52.72 52.438 54.234 49.88 C 55.754 47.312 57.228 44.799 58.413 43.014 C 59.008 42.117 59.514 41.43 59.905 41.015 C 60.105 40.802 60.242 40.698 60.317 40.659 C 60.352 40.642 60.34 40.656 60.292 40.655 C 60.228 40.654 60.161 40.626 60.116 40.582 L 60.464 40.223 L 60.812 39.864 C 60.674 39.731 60.499 39.659 60.311 39.655 C 60.139 39.652 59.986 39.706 59.866 39.767 C 59.631 39.886 59.398 40.095 59.176 40.33 C 58.724 40.811 58.179 41.558 57.58 42.461 C 56.376 44.273 54.886 46.816 53.374 49.371 C 51.855 51.935 50.313 54.514 48.993 56.429 C 48.331 57.389 47.738 58.163 47.241 58.681 C 46.991 58.941 46.782 59.12 46.615 59.226 C 46.436 59.34 46.371 59.329 46.385 59.331 L 46.316 59.826 Z M 97.992 239.074 C 97.941 238.577 97.94 238.577 97.94 238.577 C 97.939 238.577 97.939 238.577 97.938 238.577 C 97.938 238.577 97.936 238.577 97.935 238.577 C 97.933 238.577 97.929 238.578 97.925 238.578 C 97.918 238.579 97.907 238.58 97.894 238.582 C 97.868 238.586 97.831 238.591 97.784 238.599 C 97.69 238.614 97.556 238.639 97.385 238.678 C 97.044 238.756 96.557 238.891 95.956 239.12 C 94.751 239.579 93.09 240.415 91.217 241.924 C 87.47 244.945 82.907 250.643 79.461 261.354 L 79.937 261.507 L 80.413 261.66 C 83.811 251.099 88.276 245.58 91.845 242.703 C 93.631 241.263 95.2 240.479 96.312 240.055 C 96.868 239.843 97.31 239.721 97.609 239.653 C 97.758 239.618 97.872 239.598 97.945 239.586 C 97.982 239.58 98.009 239.576 98.026 239.574 C 98.034 239.572 98.04 239.572 98.043 239.571 C 98.044 239.571 98.045 239.571 98.045 239.571 C 98.045 239.571 98.045 239.571 98.045 239.571 C 98.045 239.571 98.045 239.571 98.045 239.571 C 98.044 239.571 98.044 239.571 97.992 239.074 Z M 79.937 261.507 L 79.461 261.354 C 75.034 275.116 77.963 288.718 81.969 298.846 C 83.973 303.913 86.253 308.124 88.031 311.069 C 88.921 312.542 89.686 313.699 90.229 314.489 C 90.501 314.884 90.717 315.187 90.866 315.392 C 90.94 315.495 90.998 315.573 91.037 315.626 C 91.057 315.652 91.072 315.672 91.082 315.686 C 91.088 315.693 91.092 315.698 91.094 315.702 C 91.096 315.704 91.097 315.705 91.097 315.706 C 91.098 315.706 91.098 315.707 91.098 315.707 C 91.099 315.708 91.099 315.708 91.497 315.405 C 91.894 315.102 91.895 315.102 91.894 315.102 C 91.894 315.102 91.894 315.102 91.894 315.101 C 91.893 315.101 91.893 315.1 91.892 315.098 C 91.889 315.095 91.886 315.091 91.881 315.085 C 91.872 315.073 91.858 315.054 91.84 315.029 C 91.803 314.979 91.747 314.904 91.675 314.805 C 91.531 314.606 91.32 314.31 91.053 313.922 C 90.519 313.146 89.766 312.006 88.887 310.552 C 87.13 307.643 84.878 303.482 82.899 298.478 C 78.936 288.46 76.085 275.113 80.413 261.66 L 79.937 261.507 Z M 91.497 315.405 L 91.996 315.385 C 91.833 311.196 92.857 307.917 94.695 305.203 C 96.541 302.479 99.228 300.294 102.436 298.335 C 105.646 296.375 109.341 294.661 113.191 292.856 C 117.031 291.056 121.015 289.169 124.755 286.874 L 124.493 286.448 L 124.232 286.022 C 120.547 288.283 116.611 290.149 112.766 291.951 C 108.932 293.749 105.181 295.487 101.915 297.482 C 98.645 299.478 95.826 301.752 93.868 304.642 C 91.903 307.542 90.826 311.034 90.997 315.424 L 91.497 315.405 Z M 124.493 286.448 L 124.755 286.874 C 132.406 282.179 135.039 272.831 135.039 263.203 C 135.039 253.556 132.401 243.459 129.312 237.027 L 128.861 237.243 L 128.41 237.46 C 131.436 243.76 134.039 253.71 134.039 263.203 C 134.039 272.718 131.431 281.605 124.232 286.022 L 124.493 286.448 Z M 128.861 237.243 L 129.312 237.027 C 126.207 230.563 121.392 225.982 116.364 223.514 C 111.346 221.051 106.058 220.67 102.06 222.719 L 102.288 223.164 L 102.516 223.609 C 106.149 221.747 111.091 222.04 115.923 224.411 C 120.744 226.777 125.4 231.192 128.41 237.46 L 128.861 237.243 Z M 102.288 223.164 L 102.06 222.719 C 100.233 223.655 99.254 225.352 98.924 227.192 C 98.595 229.024 98.9 231.031 99.668 232.686 C 100.433 234.334 101.698 235.71 103.348 236.144 C 105.028 236.586 106.943 236.012 108.896 234.101 L 108.547 233.744 L 108.197 233.386 C 106.404 235.14 104.835 235.501 103.603 235.177 C 102.341 234.845 101.267 233.754 100.575 232.265 C 99.887 230.783 99.618 228.984 99.908 227.369 C 100.197 225.761 101.029 224.371 102.516 223.609 L 102.288 223.164 Z M 108.547 233.744 L 108.896 234.101 C 111.761 231.298 113.663 227.659 114.097 223.505 C 114.53 219.351 113.491 214.717 110.533 209.926 C 104.627 200.36 91.062 190.145 66.121 181.703 L 65.961 182.176 L 65.801 182.65 C 90.651 191.061 103.955 201.175 109.682 210.451 C 112.541 215.082 113.509 219.498 113.102 223.402 C 112.695 227.306 110.908 230.734 108.197 233.386 L 108.547 233.744 Z M 65.961 182.176 L 66.121 181.703 C 53.561 177.451 43.083 178.443 34.443 182.355 C 25.817 186.26 19.065 193.056 13.901 200.347 C 8.736 207.641 5.141 215.456 2.838 221.443 C 1.686 224.437 0.856 226.977 0.313 228.77 C 0.042 229.667 -0.157 230.377 -0.289 230.864 C -0.355 231.107 -0.404 231.294 -0.436 231.422 C -0.453 231.485 -0.465 231.534 -0.473 231.567 C -0.477 231.583 -0.48 231.596 -0.482 231.604 C -0.484 231.608 -0.484 231.612 -0.485 231.614 C -0.485 231.615 -0.485 231.616 -0.486 231.617 C -0.486 231.617 -0.486 231.618 0 231.736 C 0.486 231.854 0.486 231.854 0.486 231.854 C 0.486 231.853 0.486 231.853 0.486 231.852 C 0.487 231.85 0.487 231.847 0.488 231.844 C 0.49 231.836 0.493 231.825 0.497 231.809 C 0.505 231.778 0.516 231.732 0.532 231.67 C 0.564 231.547 0.612 231.364 0.676 231.125 C 0.806 230.647 1.002 229.946 1.271 229.06 C 1.807 227.287 2.629 224.77 3.771 221.802 C 6.056 215.862 9.616 208.128 14.717 200.925 C 19.819 193.72 26.446 187.073 34.855 183.266 C 43.251 179.465 53.466 178.475 65.801 182.65 L 65.961 182.176 Z M 0 231.736 C 0.269 232.157 0.269 232.158 0.268 232.158 C 0.268 232.158 0.268 232.158 0.268 232.158 C 0.268 232.158 0.268 232.158 0.268 232.158 C 0.268 232.158 0.268 232.158 0.269 232.157 C 0.271 232.156 0.275 232.154 0.28 232.151 C 0.291 232.144 0.309 232.133 0.334 232.119 C 0.384 232.09 0.463 232.047 0.571 231.992 C 0.788 231.883 1.122 231.728 1.578 231.556 C 2.489 231.212 3.89 230.797 5.818 230.534 C 9.671 230.008 15.642 230.088 24.028 232.57 L 24.17 232.091 L 24.312 231.611 C 15.805 229.094 9.691 228.996 5.683 229.543 C 3.679 229.816 2.205 230.25 1.224 230.621 C 0.734 230.806 0.368 230.975 0.12 231.1 C -0.004 231.162 -0.097 231.214 -0.162 231.251 C -0.194 231.269 -0.219 231.284 -0.237 231.295 C -0.246 231.3 -0.253 231.305 -0.259 231.308 C -0.261 231.31 -0.263 231.311 -0.265 231.312 C -0.266 231.313 -0.267 231.313 -0.267 231.313 C -0.268 231.314 -0.268 231.314 -0.268 231.314 C -0.269 231.314 -0.269 231.314 0 231.736 Z M 24.17 232.091 L 24.028 232.57 C 32.409 235.055 35.621 237.518 39.366 239.547 C 43.159 241.602 47.386 243.134 57.633 243.678 L 57.659 243.178 L 57.686 242.679 C 47.546 242.142 43.474 240.635 39.842 238.668 C 36.163 236.674 32.823 234.134 24.312 231.611 L 24.17 232.091 Z M 57.659 243.178 L 57.633 243.678 C 62.857 243.952 68.244 242.172 73.358 239.393 C 78.476 236.612 83.359 232.809 87.589 228.985 C 91.821 225.16 95.411 221.302 97.943 218.402 C 99.209 216.952 100.211 215.74 100.897 214.89 C 101.241 214.465 101.505 214.13 101.684 213.902 C 101.773 213.787 101.841 213.699 101.887 213.64 C 101.91 213.61 101.927 213.587 101.939 213.572 C 101.945 213.564 101.949 213.558 101.952 213.554 C 101.954 213.552 101.955 213.551 101.956 213.55 C 101.956 213.549 101.956 213.549 101.957 213.549 C 101.957 213.548 101.957 213.548 101.559 213.246 C 101.16 212.944 101.16 212.944 101.16 212.944 C 101.16 212.944 101.16 212.944 101.159 212.945 C 101.159 212.946 101.158 212.947 101.156 212.949 C 101.154 212.952 101.15 212.958 101.144 212.965 C 101.133 212.979 101.116 213.001 101.094 213.03 C 101.05 213.088 100.983 213.174 100.896 213.286 C 100.72 213.511 100.459 213.841 100.119 214.262 C 99.44 215.103 98.446 216.305 97.189 217.745 C 94.675 220.625 91.113 224.452 86.919 228.243 C 82.722 232.037 77.904 235.784 72.88 238.514 C 67.852 241.247 62.654 242.94 57.685 242.679 L 57.659 243.178 Z M 101.559 213.254 C 101.762 212.797 101.762 212.797 101.761 212.797 C 101.761 212.797 101.76 212.796 101.759 212.796 C 101.757 212.795 101.754 212.793 101.75 212.792 C 101.742 212.788 101.73 212.783 101.714 212.776 C 101.682 212.762 101.635 212.741 101.573 212.714 C 101.45 212.66 101.266 212.579 101.027 212.476 C 100.548 212.269 99.845 211.968 98.947 211.593 C 97.151 210.843 94.575 209.797 91.454 208.609 C 85.214 206.233 76.786 203.287 68.046 201.015 C 59.313 198.745 50.233 197.137 42.702 197.46 C 35.192 197.781 29.041 200.035 26.467 205.684 L 26.922 205.892 L 27.377 206.099 C 29.708 200.984 35.34 198.775 42.745 198.459 C 50.127 198.143 59.093 199.721 67.794 201.983 C 76.486 204.243 84.878 207.175 91.099 209.543 C 94.208 210.727 96.774 211.77 98.561 212.516 C 99.455 212.889 100.154 213.188 100.63 213.394 C 100.867 213.496 101.049 213.576 101.171 213.629 C 101.232 213.656 101.278 213.677 101.309 213.69 C 101.325 213.697 101.336 213.702 101.344 213.706 C 101.348 213.707 101.35 213.709 101.352 213.709 C 101.353 213.71 101.354 213.71 101.354 213.71 C 101.355 213.711 101.355 213.711 101.559 213.254 Z M 26.922 205.892 L 26.467 205.684 C 25.231 208.395 24.963 210.447 25.725 211.847 C 26.504 213.279 28.214 213.786 30.272 213.783 C 32.359 213.78 34.996 213.256 37.915 212.407 C 40.842 211.555 44.085 210.367 47.397 209.014 C 54.021 206.307 60.947 202.927 66.213 200.227 C 68.846 198.876 71.067 197.695 72.629 196.85 C 73.411 196.428 74.027 196.091 74.449 195.858 C 74.66 195.742 74.822 195.652 74.931 195.591 C 74.986 195.561 75.028 195.538 75.056 195.522 C 75.07 195.514 75.08 195.508 75.087 195.504 C 75.091 195.502 75.094 195.501 75.095 195.5 C 75.096 195.499 75.097 195.499 75.097 195.499 C 75.098 195.499 75.098 195.498 74.854 195.062 C 74.609 194.626 74.609 194.626 74.609 194.626 C 74.608 194.627 74.608 194.627 74.607 194.627 C 74.605 194.628 74.603 194.63 74.599 194.632 C 74.592 194.636 74.582 194.641 74.568 194.649 C 74.541 194.664 74.5 194.687 74.445 194.717 C 74.337 194.778 74.176 194.867 73.966 194.982 C 73.547 195.214 72.933 195.55 72.154 195.971 C 70.597 196.812 68.383 197.99 65.756 199.337 C 60.502 202.031 53.605 205.396 47.019 208.088 C 43.726 209.434 40.518 210.608 37.636 211.447 C 34.747 212.287 32.217 212.78 30.271 212.783 C 28.295 212.786 27.104 212.288 26.603 211.369 C 26.085 210.418 26.159 208.771 27.377 206.099 L 26.922 205.892 Z M 118.963 245.194 C 118.568 244.888 118.568 244.888 118.568 244.888 C 118.568 244.888 118.568 244.889 118.567 244.889 C 118.567 244.89 118.566 244.891 118.564 244.893 C 118.562 244.896 118.558 244.901 118.553 244.907 C 118.543 244.92 118.529 244.939 118.509 244.964 C 118.47 245.015 118.412 245.089 118.337 245.187 C 118.185 245.383 117.963 245.67 117.68 246.038 C 117.113 246.773 116.301 247.829 115.317 249.113 C 113.351 251.681 110.702 255.161 107.97 258.809 C 105.239 262.457 102.424 266.275 100.127 269.518 C 97.84 272.746 96.039 275.442 95.362 276.826 L 95.812 277.046 L 96.261 277.265 C 96.895 275.969 98.643 273.343 100.943 270.096 C 103.232 266.864 106.041 263.054 108.77 259.409 C 111.499 255.764 114.146 252.287 116.111 249.721 C 117.094 248.438 117.906 247.383 118.472 246.648 C 118.755 246.281 118.977 245.994 119.128 245.799 C 119.203 245.701 119.261 245.627 119.3 245.576 C 119.319 245.551 119.334 245.532 119.344 245.52 C 119.349 245.513 119.352 245.508 119.355 245.505 C 119.356 245.504 119.357 245.503 119.358 245.502 C 119.358 245.501 119.358 245.501 119.358 245.501 C 119.358 245.501 119.359 245.501 118.963 245.194 Z M 95.812 277.046 L 95.362 276.826 C 93.971 279.673 94.325 283.396 95.673 285.896 C 96.349 287.15 97.312 288.164 98.509 288.568 C 99.736 288.982 101.098 288.715 102.456 287.629 L 102.143 287.238 L 101.831 286.848 C 100.68 287.769 99.667 287.903 98.828 287.62 C 97.958 287.327 97.16 286.548 96.553 285.422 C 95.335 283.162 95.032 279.781 96.261 277.265 L 95.812 277.046 Z M 102.143 287.238 L 102.456 287.629 C 103.215 287.021 103.71 285.94 104.044 284.642 C 104.384 283.325 104.579 281.691 104.67 279.873 C 104.852 276.234 104.618 271.779 104.23 267.469 C 103.841 263.154 103.295 258.968 102.846 255.862 C 102.621 254.308 102.421 253.024 102.277 252.128 C 102.205 251.679 102.147 251.328 102.107 251.089 C 102.087 250.969 102.071 250.878 102.061 250.816 C 102.056 250.785 102.052 250.761 102.049 250.745 C 102.047 250.737 102.046 250.731 102.046 250.727 C 102.045 250.725 102.045 250.724 102.045 250.723 C 102.045 250.722 102.045 250.722 102.045 250.722 C 102.045 250.721 102.045 250.721 101.552 250.807 C 101.059 250.892 101.059 250.892 101.059 250.892 C 101.059 250.892 101.06 250.893 101.06 250.893 C 101.06 250.894 101.06 250.896 101.06 250.897 C 101.061 250.901 101.062 250.907 101.063 250.915 C 101.066 250.93 101.07 250.953 101.075 250.984 C 101.085 251.045 101.101 251.135 101.121 251.254 C 101.16 251.491 101.218 251.84 101.29 252.286 C 101.433 253.178 101.633 254.457 101.856 256.005 C 102.303 259.1 102.847 263.268 103.234 267.558 C 103.621 271.853 103.849 276.254 103.671 279.823 C 103.582 281.609 103.391 283.168 103.076 284.393 C 102.756 285.638 102.328 286.45 101.831 286.848 L 102.143 287.238 Z M 68.266 213.641 C 68.141 213.157 68.141 213.157 68.141 213.157 C 68.14 213.157 68.14 213.157 68.14 213.157 C 68.139 213.157 68.139 213.157 68.138 213.158 C 68.136 213.158 68.134 213.159 68.131 213.16 C 68.125 213.161 68.116 213.163 68.105 213.166 C 68.083 213.172 68.051 213.181 68.01 213.193 C 67.927 213.216 67.805 213.251 67.648 213.298 C 67.335 213.393 66.881 213.538 66.314 213.74 C 65.179 214.144 63.59 214.776 61.763 215.689 C 58.111 217.515 53.489 220.476 49.646 225.01 L 50.027 225.333 L 50.409 225.657 C 54.138 221.256 58.636 218.371 62.21 216.584 C 63.996 215.691 65.547 215.075 66.649 214.682 C 67.2 214.486 67.639 214.346 67.938 214.255 C 68.088 214.21 68.203 214.177 68.279 214.156 C 68.318 214.145 68.346 214.137 68.365 214.132 C 68.375 214.129 68.382 214.128 68.386 214.126 C 68.388 214.126 68.39 214.125 68.391 214.125 C 68.391 214.125 68.391 214.125 68.391 214.125 C 68.391 214.125 68.391 214.125 68.391 214.125 C 68.391 214.125 68.391 214.125 68.266 213.641 Z M 150.995 50.182 L 150.528 50.002 C 149.868 51.72 149.833 54.474 150.226 57.865 C 150.623 61.282 151.468 65.434 152.64 70.004 C 154.986 79.148 158.656 90.011 162.732 100.112 C 166.807 110.208 171.297 119.569 175.29 125.697 C 177.278 128.749 179.178 131.055 180.877 132.228 C 181.728 132.816 182.586 133.159 183.416 133.108 C 184.273 133.054 184.996 132.587 185.569 131.776 L 185.161 131.488 L 184.752 131.199 C 184.31 131.825 183.84 132.079 183.354 132.11 C 182.842 132.141 182.207 131.931 181.445 131.405 C 179.917 130.35 178.105 128.187 176.127 125.151 C 172.187 119.104 167.725 109.811 163.66 99.738 C 159.597 89.669 155.942 78.848 153.609 69.756 C 152.442 65.209 151.609 61.105 151.22 57.749 C 150.827 54.367 150.897 51.831 151.461 50.361 L 150.995 50.182 Z M 185.161 131.488 L 185.569 131.777 C 186.717 130.152 186.713 127.785 185.985 125.046 C 185.25 122.282 183.744 119.008 181.694 115.447 C 177.591 108.32 171.256 99.947 164.348 92.037 C 157.439 84.125 149.939 76.656 143.496 71.339 C 140.276 68.682 137.306 66.551 134.796 65.172 C 133.541 64.482 132.387 63.972 131.364 63.682 C 130.348 63.393 129.417 63.308 128.632 63.52 L 128.763 64.003 L 128.893 64.486 C 129.43 64.34 130.159 64.379 131.091 64.644 C 132.016 64.907 133.098 65.379 134.314 66.048 C 136.746 67.385 139.662 69.472 142.859 72.111 C 149.25 77.385 156.711 84.813 163.595 92.695 C 170.479 100.578 176.769 108.896 180.827 115.946 C 182.857 119.473 184.316 122.66 185.019 125.303 C 185.728 127.969 185.633 129.953 184.752 131.199 L 185.161 131.488 Z M 128.763 64.003 L 128.632 63.52 C 127.16 63.919 125.584 65.196 123.988 67.022 C 122.377 68.865 120.688 71.336 119.002 74.234 C 115.63 80.033 112.243 87.591 109.505 95.381 C 106.768 103.17 104.671 111.216 103.892 117.989 C 103.502 121.375 103.44 124.461 103.8 127.047 C 104.159 129.626 104.946 131.764 106.307 133.188 L 106.668 132.843 L 107.03 132.497 C 105.875 131.289 105.136 129.391 104.79 126.91 C 104.446 124.437 104.501 121.441 104.885 118.103 C 105.653 111.429 107.726 103.459 110.449 95.713 C 113.17 87.968 116.533 80.469 119.867 74.737 C 121.534 71.87 123.187 69.458 124.741 67.68 C 126.31 65.885 127.721 64.803 128.893 64.486 L 128.763 64.003 Z M 106.668 132.843 L 106.307 133.188 C 107.64 134.583 109.904 135.867 112.778 137.04 C 115.665 138.217 119.22 139.303 123.182 140.277 C 131.108 142.224 140.706 143.733 149.944 144.629 C 159.18 145.524 168.08 145.808 174.608 145.296 C 177.865 145.041 180.569 144.586 182.435 143.891 C 183.366 143.543 184.13 143.122 184.646 142.6 C 185.178 142.063 185.454 141.409 185.354 140.662 L 184.859 140.729 L 184.363 140.795 C 184.415 141.181 184.291 141.538 183.936 141.897 C 183.565 142.271 182.954 142.63 182.086 142.953 C 180.353 143.6 177.76 144.047 174.53 144.3 C 168.083 144.804 159.247 144.525 150.041 143.633 C 140.837 142.741 131.289 141.239 123.421 139.306 C 119.486 138.339 115.982 137.267 113.156 136.114 C 110.316 134.955 108.213 133.735 107.03 132.497 L 106.668 132.843 Z M 184.859 140.729 L 185.354 140.662 C 185.257 139.938 184.836 139.309 184.222 138.77 C 183.608 138.233 182.772 137.758 181.768 137.337 C 179.759 136.493 176.983 135.823 173.713 135.323 C 167.164 134.32 158.525 133.98 149.808 134.341 C 141.092 134.702 132.269 135.764 125.357 137.581 C 121.902 138.488 118.902 139.59 116.626 140.9 C 114.362 142.204 112.738 143.758 112.174 145.607 L 112.652 145.753 L 113.13 145.899 C 113.585 144.411 114.944 143.023 117.125 141.767 C 119.294 140.518 122.2 139.444 125.611 138.548 C 132.43 136.756 141.175 135.699 149.85 135.34 C 158.523 134.981 167.095 135.321 173.562 136.311 C 176.799 136.807 179.482 137.461 181.381 138.259 C 182.331 138.657 183.06 139.082 183.563 139.523 C 184.064 139.962 184.308 140.388 184.363 140.795 L 184.859 140.729 Z M 112.652 145.753 L 112.174 145.607 C 110.122 152.319 109.295 157.795 109.746 163.603 C 110.197 169.402 111.919 175.5 114.916 183.457 L 115.384 183.281 L 115.852 183.105 C 112.866 175.177 111.183 169.183 110.743 163.526 C 110.304 157.877 111.103 152.531 113.13 145.899 L 112.652 145.753 Z M 115.384 183.281 L 114.916 183.457 C 117.898 191.376 121.175 200.628 125.5 207.431 C 127.665 210.836 130.118 213.671 132.968 215.418 C 135.836 217.177 139.088 217.824 142.791 216.875 L 142.667 216.391 L 142.543 215.906 C 139.116 216.784 136.141 216.191 133.491 214.566 C 130.824 212.93 128.469 210.238 126.344 206.895 C 122.088 200.201 118.853 191.072 115.852 183.105 L 115.384 183.281 Z M 142.667 216.391 L 142.791 216.875 C 144.68 216.391 146.882 215.041 149.252 213.102 C 151.632 211.153 154.225 208.574 156.897 205.574 C 162.241 199.575 167.931 191.861 172.911 184.07 C 177.89 176.28 182.172 168.391 184.692 162.04 C 185.95 158.867 186.78 156.051 187.026 153.808 C 187.268 151.604 186.965 149.764 185.701 148.798 L 185.397 149.196 L 185.094 149.593 C 185.904 150.212 186.268 151.546 186.032 153.699 C 185.8 155.811 185.007 158.532 183.762 161.671 C 181.275 167.942 177.028 175.771 172.068 183.531 C 167.11 191.289 161.451 198.958 156.15 204.909 C 153.499 207.885 150.945 210.424 148.619 212.328 C 146.282 214.24 144.217 215.477 142.543 215.906 L 142.667 216.391 Z M 185.397 149.196 L 185.701 148.798 C 185.057 148.308 184.327 148.171 183.565 148.353 C 182.829 148.528 182.089 148.994 181.356 149.655 C 179.891 150.977 178.316 153.212 176.715 156.074 C 173.503 161.814 170.096 170.237 167.19 179.428 C 164.284 188.622 161.87 198.611 160.653 207.487 C 160.045 211.925 159.735 216.095 159.815 219.753 C 159.895 223.405 160.364 226.58 161.335 229.01 L 161.799 228.825 L 162.263 228.639 C 161.356 226.367 160.894 223.328 160.815 219.731 C 160.737 216.141 161.041 212.027 161.644 207.623 C 162.851 198.815 165.25 188.883 168.144 179.73 C 171.039 170.573 174.422 162.22 177.587 156.563 C 179.174 153.727 180.685 151.608 182.026 150.397 C 182.698 149.792 183.291 149.446 183.798 149.325 C 184.279 149.21 184.699 149.292 185.094 149.593 L 185.397 149.196 Z M 161.799 228.825 L 161.334 229.01 C 162.978 233.127 167.53 236.43 173.345 238.719 C 179.186 241.018 186.412 242.341 193.585 242.421 C 200.755 242.502 207.911 241.342 213.597 238.64 C 219.29 235.933 223.545 231.657 224.789 225.513 L 224.298 225.414 L 223.808 225.315 C 222.645 231.065 218.666 235.123 213.167 237.736 C 207.661 240.354 200.667 241.501 193.596 241.421 C 186.528 241.342 179.424 240.037 173.711 237.788 C 167.973 235.53 163.75 232.364 162.263 228.64 L 161.799 228.825 Z M 224.298 225.414 L 224.789 225.513 C 226.217 218.453 225.321 209.951 223.125 201.255 C 220.927 192.551 217.416 183.611 213.573 175.656 C 209.73 167.702 205.546 160.715 201.995 155.919 C 200.223 153.525 198.592 151.656 197.228 150.486 C 196.549 149.904 195.908 149.471 195.328 149.245 C 194.749 149.019 194.138 148.965 193.627 149.303 L 193.902 149.72 L 194.178 150.137 C 194.304 150.054 194.532 150.007 194.964 150.176 C 195.393 150.344 195.934 150.695 196.577 151.246 C 197.858 152.343 199.436 154.143 201.192 156.514 C 204.697 161.249 208.85 168.179 212.672 176.091 C 216.494 184.002 219.978 192.877 222.156 201.5 C 224.335 210.131 225.194 218.465 223.808 225.315 L 224.298 225.414 Z M 193.902 149.72 L 193.627 149.303 C 193.109 149.645 192.907 150.294 192.848 150.979 C 192.787 151.69 192.865 152.59 193.055 153.632 C 193.436 155.721 194.285 158.49 195.508 161.683 C 197.957 168.074 201.934 176.238 206.78 184.208 C 211.625 192.176 217.352 199.976 223.31 205.622 C 229.244 211.247 235.515 214.837 241.427 214.137 L 241.368 213.641 L 241.31 213.144 C 235.866 213.788 229.888 210.479 223.998 204.896 C 218.129 199.334 212.455 191.616 207.635 183.689 C 202.816 175.764 198.867 167.654 196.442 161.325 C 195.228 158.158 194.404 155.455 194.039 153.453 C 193.856 152.449 193.794 151.648 193.844 151.064 C 193.897 150.455 194.059 150.216 194.178 150.137 L 193.902 149.72 Z M 241.368 213.641 L 241.427 214.137 C 247.286 213.443 252.321 209.77 256.477 204.464 C 260.634 199.155 263.948 192.166 266.364 184.726 C 268.781 177.282 270.308 169.364 270.876 162.178 C 271.444 155.003 271.059 148.517 269.621 143.957 L 269.144 144.108 L 268.667 144.258 C 270.05 148.641 270.442 154.981 269.879 162.099 C 269.317 169.208 267.806 177.049 265.413 184.417 C 263.019 191.788 259.751 198.66 255.689 203.847 C 251.626 209.036 246.807 212.493 241.309 213.144 L 241.368 213.641 Z M 269.144 144.108 L 269.621 143.957 C 268.871 141.582 267.155 139.627 264.789 138.037 C 262.424 136.449 259.383 135.208 255.924 134.261 C 249.006 132.367 240.327 131.627 231.805 131.713 C 223.279 131.798 214.877 132.709 208.503 134.134 C 205.318 134.846 202.618 135.691 200.657 136.637 C 199.677 137.109 198.861 137.616 198.26 138.16 C 197.661 138.701 197.238 139.311 197.121 139.991 L 197.613 140.076 L 198.106 140.161 C 198.171 139.784 198.422 139.36 198.93 138.902 C 199.435 138.445 200.159 137.987 201.091 137.537 C 202.955 136.639 205.571 135.814 208.721 135.11 C 215.014 133.703 223.345 132.798 231.815 132.713 C 240.287 132.628 248.865 133.365 255.66 135.225 C 259.058 136.155 261.987 137.36 264.231 138.868 C 266.474 140.374 268.006 142.162 268.667 144.258 L 269.144 144.108 Z M 197.613 140.076 L 197.121 139.991 C 197.061 140.335 197.088 140.669 197.218 140.978 C 197.348 141.286 197.567 141.535 197.839 141.732 C 198.369 142.116 199.139 142.335 200.045 142.448 C 201.873 142.678 204.524 142.512 207.707 142.053 C 214.089 141.132 222.77 139.009 231.647 136.317 C 240.526 133.624 249.622 130.357 256.835 127.14 C 260.441 125.533 263.587 123.933 266.004 122.419 C 267.213 121.662 268.247 120.921 269.068 120.206 C 269.885 119.495 270.514 118.789 270.885 118.096 L 270.444 117.86 L 270.003 117.624 C 269.714 118.165 269.185 118.778 268.412 119.452 C 267.643 120.122 266.654 120.832 265.473 121.572 C 263.111 123.051 260.012 124.629 256.428 126.227 C 249.263 129.422 240.208 132.676 231.357 135.36 C 222.503 138.045 213.876 140.153 207.564 141.063 C 204.4 141.519 201.858 141.668 200.17 141.456 C 199.319 141.349 198.751 141.158 198.427 140.923 C 198.272 140.811 198.186 140.698 198.14 140.589 C 198.094 140.482 198.074 140.345 198.106 140.161 L 197.613 140.076 Z M 270.444 117.86 L 270.885 118.096 C 271.616 116.73 271.812 114.585 271.627 111.985 C 271.44 109.359 270.856 106.179 269.942 102.673 C 268.115 95.66 264.954 87.292 260.941 79.364 C 256.93 71.44 252.052 63.924 246.778 58.634 C 241.52 53.361 235.765 50.201 230.027 51.254 L 230.118 51.746 L 230.208 52.238 C 235.448 51.276 240.883 54.138 246.07 59.341 C 251.241 64.527 256.063 71.941 260.049 79.816 C 264.033 87.686 267.167 95.987 268.975 102.925 C 269.879 106.395 270.448 109.512 270.629 112.056 C 270.812 114.625 270.592 116.523 270.003 117.624 L 270.444 117.86 Z M 230.118 51.746 L 230.027 51.254 C 227.162 51.78 224.314 53.421 221.546 55.843 C 218.775 58.267 216.057 61.499 213.45 65.255 C 208.237 72.767 203.433 82.43 199.527 92.081 C 195.62 101.733 192.601 111.396 190.964 118.917 C 190.147 122.675 189.67 125.918 189.605 128.365 C 189.573 129.587 189.643 130.634 189.836 131.458 C 190.025 132.265 190.356 132.952 190.926 133.32 L 191.197 132.899 L 191.467 132.479 C 191.226 132.324 190.979 131.952 190.81 131.23 C 190.644 130.524 190.574 129.572 190.605 128.391 C 190.667 126.034 191.13 122.861 191.941 119.13 C 193.564 111.674 196.564 102.066 200.454 92.456 C 204.344 82.844 209.115 73.254 214.272 65.825 C 216.85 62.11 219.515 58.949 222.204 56.596 C 224.896 54.24 227.584 52.72 230.208 52.238 L 230.118 51.746 Z M 191.197 132.899 L 190.926 133.32 C 191.571 133.735 192.291 133.559 192.932 133.146 C 193.57 132.734 194.249 132.019 194.954 131.086 C 196.37 129.211 197.996 126.308 199.704 122.692 C 203.125 115.451 206.922 105.254 210.075 94.441 C 213.227 83.63 215.741 72.179 216.586 62.434 C 217.008 57.562 217.015 53.099 216.468 49.346 C 215.922 45.602 214.817 42.51 212.968 40.438 L 212.595 40.771 L 212.222 41.104 C 213.883 42.965 214.945 45.833 215.478 49.49 C 216.01 53.139 216.008 57.519 215.59 62.348 C 214.753 72.004 212.256 83.385 209.115 94.161 C 205.973 104.936 202.194 115.082 198.8 122.265 C 197.101 125.861 195.51 128.691 194.156 130.484 C 193.475 131.385 192.881 131.989 192.389 132.306 C 191.899 132.622 191.634 132.586 191.467 132.479 L 191.197 132.899 Z M 212.595 40.771 L 212.968 40.438 C 209.364 36.401 204.069 33.887 198.095 32.646 C 192.118 31.405 185.425 31.43 178.974 32.501 C 172.523 33.571 166.29 35.692 161.235 38.662 C 156.185 41.629 152.268 45.47 150.528 50.003 L 150.995 50.182 L 151.462 50.361 C 153.091 46.116 156.803 42.426 161.741 39.524 C 166.674 36.626 172.786 34.541 179.138 33.487 C 185.489 32.433 192.055 32.413 197.892 33.626 C 203.731 34.838 208.804 37.276 212.222 41.104 L 212.595 40.771 Z" fill="currentColor" fill-rule="nonzero"></path>
</svg>