<svg xmlns="http://www.w3.org/2000/svg" width="24" height="24" viewBox="0 0 24 24" fill="none">
  <path d="M 6.667 5.333 C 6.667 3.919 7.229 2.562 8.229 1.562 C 9.229 0.562 10.586 0 12 0 C 13.414 0 14.771 0.562 15.771 1.562 C 16.771 2.562 17.333 3.919 17.333 5.333 C 17.333 6.748 16.771 8.104 15.771 9.105 C 14.771 10.105 13.414 10.667 12 10.667 C 10.586 10.667 9.229 10.105 8.229 9.105 C 7.229 8.104 6.667 6.748 6.667 5.333 Z M 6.667 13.333 C 4.899 13.333 3.203 14.036 1.953 15.286 C 0.702 16.536 0 18.232 0 20 C 0 21.061 0.421 22.078 1.172 22.828 C 1.922 23.579 2.939 24 4 24 L 20 24 C 21.061 24 22.078 23.579 22.828 22.828 C 23.579 22.078 24 21.061 24 20 C 24 18.232 23.298 16.536 22.047 15.286 C 20.797 14.036 19.101 13.333 17.333 13.333 L 6.667 13.333 Z" fill="currentColor" fill-rule="evenodd"></path>
</svg>