<svg viewBox="0 0 130 130" xmlns="http://www.w3.org/2000/svg" fill="none" stroke="#525651" stroke-width="5" stroke-linecap="round" stroke-linejoin="round">
  <path d="M52 26 q7-9 0-18" stroke="#aeb4ab" stroke-width="4.5"></path>
  <path d="M66 26 q7-9 0-18" stroke="#aeb4ab" stroke-width="4.5"></path>
  <path d="M80 26 q7-9 0-18" stroke="#aeb4ab" stroke-width="4.5"></path>
  <ellipse cx="62" cy="108" rx="46" ry="11" fill="#eef2f0"></ellipse>
  <path d="M30 44 h64 l-6 44 a9 9 0 0 1-9 8 H45 a9 9 0 0 1-9-8 Z" fill="#f6faf9"></path>
  <path d="M93 52 q18 1 16 19 q-2 16-19 15" fill="#f6faf9"></path>
  <ellipse cx="62" cy="45" rx="32" ry="8" fill="#6b4324"></ellipse>
  <ellipse cx="62" cy="44" rx="20" ry="4" fill="#c08a57" stroke="none"></ellipse>
</svg>